<?xml version="1.0" encoding="UTF-8"?>
<svg width="666.67" height="666.67" version="1.1" viewBox="0 0 666.67 666.67" xml:space="preserve" xmlns="http://www.w3.org/2000/svg" xmlns:cc="http://creativecommons.org/ns#" xmlns:dc="http://purl.org/dc/elements/1.1/" xmlns:rdf="http://www.w3.org/1999/02/22-rdf-syntax-ns#"><metadata><rdf:RDF><cc:Work rdf:about=""><dc:format>image/svg+xml</dc:format><dc:type rdf:resource="http://purl.org/dc/dcmitype/StillImage"/><dc:title/></cc:Work></rdf:RDF></metadata><g transform="matrix(1.3333 0 0 -1.3333 0 666.67)"><g transform="scale(.1)"><path d="m0 0h5e3v5e3h-5e3z" fill="#a3ccee"/><path d="m2537 858.14c-577.44 0-1045.6 43.601-1045.6 97.39 0 20.02 64.89 38.641 176.15 54.119 11.91-33.771 38.52-49.99 69.73-49.99 15.73 0 32.62 4.121 49.39 12.192 29.13 14.007 51.18 34.238 69.71 57.618 182.9 14.62 420.65 23.45 680.58 23.45 163.75 0 318.67-3.5 456.65-9.75 10.56-10.99 20.9-22.11 31.03-33.37 35.42-39.351 95.9-95.659 152.85-95.659h0.22 0.23 0.87 0.87c24.06-0.012 47.48 10.039 68.12 35.66 16.72 20.769 23.91 47.019 25.35 74.889 191.05-17.65 309.39-42.12 309.39-69.159 0-53.789-468.12-97.39-1045.6-97.39" fill="#7ea5dc"/><path d="m2134 3487.9c20.17 9.04 36.22 26.18 45.7 46.15 9.14 19.25 13.67 38.79 27.43 55.51 13.21 16.05 33 25.56 52.32 32.05 24.32 8.18 50.14 12.92 72.34 25.78 20.37 11.79 36.81 30.24 46.19 51.82 6.8 15.65 9.89 32.62 12.53 49.48 2.21 14.08 4.13 28.21 6.06 42.34-38.18-39.87-83.72-75.51-137.48-88.04-36.38-8.48-75.53-6.15-109.67-21.32-35.05-15.59-59.87-47.44-81.05-79.42-8.78-13.26-17.2-26.77-25.24-40.49-8.35-14.25-16.56-30.85-11.62-46.62 11.04-35.23 74.99-39.58 102.49-27.24" fill="#fcda77"/><path d="m2137.7 3481.4c28.06 15.39 41.23 34.55 54.6 63.29 16.02 34.41 32.15 56.02 69.06 69.67 19.27 7.13 39.81 10.47 58.63 18.95 65.82 29.64 74.78 90.45 83.73 155.7 0.94 6.87-6.74 13.18-12.53 7.3-27.7-28.11-57.8-54.82-93.8-71.84-33.95-16.05-67.47-17.02-104-23.5-58.79-10.42-94.22-40.38-127.51-88.98-20.13-29.37-62.21-79.01-32.26-114.72 23-27.44 71.46-27.5 102.29-16.62 9.05 3.18 5.15 17.68-3.99 14.46-18.58-6.55-39.79-8.04-59.04-2.99-50.5 13.25-21.35 70.59-2.44 99.65 36.14 55.55 73.52 87.18 140.88 96.53 78.54 10.89 134.57 40.67 190.47 97.4-4.18 2.44-8.35 4.87-12.53 7.3-5.3-38.59-7.48-81.16-32.39-112.89-29.78-37.92-73.57-38.56-113.96-56.77-61.31-27.66-56.44-98.08-112.78-128.99-8.47-4.64-0.9-17.6 7.57-12.95" fill="#45284f"/><path d="m2085.8 3522.6c40.93 27.17 24.6 81.81 55.81 115.89 12.51 13.66 30.72 20.51 48.61 25.31 29.79 8 60.58 11.59 90.62 18.53 30.05 6.94 60.06 17.65 83.51 37.68 23.44 20.04 39.38 50.82 35.33 81.39-14.29-21.96-36.39-38.73-61.39-46.58-35.18-11.05-73.09-4.49-109.97-4.26-28.65 0.18-57.19-3.52-85.44-8.36-10.68-1.83-21.39-3.83-31.65-7.32-11.97-4.08-23.19-10.12-33.77-17.04-22.25-14.55-41.88-33.08-57.7-54.44-23.68-31.98-38.87-72.54-31.54-111.66 3.52-18.82 13.95-37.74 34.25-39.84 22.51-2.34 43.68-2.34 63.33 10.7" fill="#c99dd4"/><path d="m2091.1 3517.3c23.96 19.65 28.1 41.68 36.16 70.33 20.07 71.36 84.75 72.11 146.52 85.55 67.02 14.59 135.53 50.41 133.4 128.22-0.22 7.99-9.67 9.49-13.98 3.79-39.39-52.09-104.01-51.62-167.45-51.16-29.41 0.21-58.58 0.43-84.86-4.6-55.18-10.55-100.15-41.64-131.83-88.43-49.73-73.46-32.6-201.38 80.52-144.87 8.64 4.31 1.05 17.25-7.57 12.95-20.53-10.26-62.41-16.23-79.58 4.9-10.62 13.06-9.31 44.25-6.46 59.85 5.7 31.34 23.52 59.26 44.43 82.6 41.42 46.22 93.76 60.28 153.6 65.16 19.04 1.55 37.89 1.41 56.29 1.27 59.15-0.44 113.79-0.88 155.86 54.76-4.66 1.26-9.31 2.52-13.97 3.78 3.51-128.07-155.55-101.08-231.17-140.08-56.62-29.2-35.58-96.57-80.52-133.42-7.46-6.12 3.2-16.67 10.61-10.6" fill="#45284f"/><path d="m1969.9 3659c10.84 20.13 26.26 38.09 43.88 52.01 54.61 43.15 128.14 57.99 196.41 57.28 35.6-0.37 71.2-6.49 106.64-3.13s72.45 18.47 90 49.44c-0.48-25.49-14.96-50.28-36.92-63.22-14.78-8.7-32.02-12.06-48.93-14.88-38.87-6.45-77.96-10.18-117.24-12.95-37.82-2.66-78.6-8.71-110.78-30.22-31.02-20.75-51.64-63.79-58.46-99.72-2.58-13.56-3.48-27.64-8.94-40.31-5.47-12.67-17.06-24.03-30.86-23.94-12.46 0.07-19.26 5.85-26.5 15.99-23.38 32.74-16.15 80.48 1.7 113.65" fill="#8387cc"/><path d="m1976.4 3655.2c55.77 93.6 169.82 109.31 269.4 103.86 62.73-3.44 128.26-5.57 167.52 51.75-4.66 1.26-9.32 2.52-13.97 3.78-12.45-114.47-224.15-63.84-303.01-110.65-25.88-15.35-43.61-39.09-55.73-66.47-7.86-17.76-8.21-38.38-15.57-55.54 1.09-19.25-9.61-22.8-32.11-10.64-23.55-7.46-33.78-1.85-30.7 16.83-5.9 20.38 5.98 49.72 14.17 67.08 4.09 8.69-8.84 16.31-12.95 7.57-17.4-36.89-32.49-103.28 8.3-132.54 48.63-34.87 64.17 36.81 71.6 68.25 30.08 127.3 156.12 112.84 259.19 127.64 57.02 8.19 104.93 25.24 111.81 88.47 0.87 8.06-10.22 9.27-13.98 3.79-37.02-54.04-108.99-50.79-177.45-47.54-33.9 1.6-66.93 3.21-94.44-2.13-67.55-13.12-129.18-45.77-165.03-105.94-4.95-8.31 8.01-15.86 12.95-7.57" fill="#45284f"/><path d="m2372.5 3390.4c25.83 2.83 49.32 14.62 66.11 31.04 16.18 15.82 27.16 33.27 47.9 45.32 19.9 11.57 45.41 14.96 69.51 15.59 9 0.23 18.06 0.13 27.12 0.04 21.48-0.22 42.94-0.45 63.54 3.7 26.86 5.4 51.18 18.34 68.33 36.34 12.42 13.05 20.99 28.44 29 43.86 6.7 12.88 13.09 25.88 19.48 38.89-55.6-27.19-118.41-48.18-183.81-44.6-44.27 2.42-88.51 16.02-132.18 11.37-44.83-4.78-82.75-28.15-116.5-52.71-14-10.18-27.66-20.7-40.95-31.54-13.8-11.25-28.13-24.82-27.12-41.39 2.25-37.02 74.37-59.77 109.57-55.91" fill="#fcda77"/><path d="m2374.5 3383.1c35.82 6.46 57.49 22.38 82.95 47.45 47 46.27 91.82 41.98 153.4 44.34 87.3 3.34 123.08 53.25 159.11 126.44 3.42 6.93-3.4 13.5-10.25 10.26-45.75-21.6-93.75-39.48-144.64-43.2-44.07-3.22-86.41 8.22-130.01 11.2-72.68 4.99-130.29-31.21-185.38-74.74-25-19.76-58.48-45.98-36.44-79.93 20.95-32.25 73.79-43.8 109.26-42.08 9.61 0.46 9.67 15.47 0 15-20.29-0.99-39.87 2.75-58.72 10.17-8.25 3.25-30.46 10.92-34.14 20.35-6.75 17.33 5.84 41.67 15.72 53.98 38.19 47.55 121.6 84.51 180.29 82.63 53.61-1.71 103.77-16.72 157.86-9.64 47.06 6.16 91.14 23.17 133.76 43.31-3.41 3.42-6.84 6.84-10.26 10.26-22.76-46.23-43.99-93.77-96.55-111.52-25.08-8.46-51.23-8.04-77.41-7.61-18.85 0.3-37.71 0.61-56.18-2.41-66.42-10.84-90.66-77.94-156.36-89.79-9.49-1.71-5.47-16.17 3.99-14.47" fill="#45284f"/><path d="m2327.6 3437.7c55.01 14.2 52.43 71.4 98.32 95.05 18.4 9.49 41.33 10.78 63.28 10.19 36.54-0.97 72.95-6.46 109.48-8.53 36.55-2.06 74.15-0.49 106.98 11.94 32.84 12.42 60.23 37.35 64.61 67.87-22.89-16.93-53.21-26.61-84.21-26.89-43.65-0.39-85.23 16.91-127.47 27.84-32.84 8.5-66.7 13.22-100.54 16.79-12.81 1.35-25.69 2.53-38.5 2.16-14.94-0.44-29.61-2.99-43.8-6.56-29.83-7.51-57.84-19.59-82.31-35.5-36.64-23.84-66.06-58.36-69.22-98.04-1.52-19.1 4.85-40.28 27.53-48.19 25.15-8.78 49.45-14.94 75.85-8.13" fill="#c99dd4"/><path d="m2329.6 3430.5c31.22 10.9 44.98 30.45 63 57 43.17 63.57 112.43 47.2 178.7 41.54 73.19-6.25 183.63-5.5 206.21 83.22 1.53 6.05-5.36 12.16-11.03 8.47-85.64-55.9-182.29 1.69-272.63 14.44-71.14 10.04-135.42 5.5-197.94-32.79-39.68-24.31-85.91-69.33-78.95-120.91 6.95-51.52 70.95-57.95 112.64-50.97 9.49 1.6 5.46 16.05-3.99 14.47-45.99-7.71-52.93-3.07-74.51 31.68-18.31 29.5-20.13 35.64-2.3 62.98 17.41 26.71 45.86 46.53 74.01 60.59 62.13 31.02 125.46 28.26 192.27 16.54 89-15.61 174.09-64.38 258.98-8.98-3.67 2.82-7.34 5.64-11.02 8.47-22.38-87.95-123.97-79.4-210.77-70.85-33.19 3.27-64.22 6.54-87.84 4.41-24.09-2.17-45.61-8.96-63.21-25.99-28.31-27.39-33.82-64.27-75.61-78.85-9.06-3.16-5.17-17.66 3.99-14.47" fill="#45284f"/><path d="m2234.9 3602.3c18.39 16.18 41.4 28.94 65.73 37.19 75.44 25.57 164.22 18.47 242.36-2.04 40.75-10.69 79.8-26.9 121.47-33.97s88.61-3.3 117.9 21.33c-8.07-24.33-32.02-43.93-61.05-49.97-19.53-4.06-40.31-2.29-60.56-0.07-46.52 5.08-92.49 12.86-138.39 21.61-44.19 8.42-92.78 14.46-136.07 3.14-41.74-10.91-78.13-46.24-96.59-78.75-6.96-12.27-12.15-25.53-22.17-36.11s-26.69-18.11-42.5-14.02c-14.28 3.69-20.38 11.21-25.69 23.04-17.15 38.22 5.26 81.96 35.56 108.62" fill="#8387cc"/><path d="m2240.2 3597c90.61 72.8 223 57.03 326.78 25.7 70.94-21.42 151.92-51.67 219.16-4.36-3.41 3.42-6.83 6.84-10.26 10.26-33.65-74.34-137.45-44.84-199.84-34.33-54.31 9.14-109.39 23.85-164.88 17.21-38.17-4.56-70.52-20.64-97.72-47.87-13.62-13.64-23.85-28.65-33.53-45.28-3.26-6.26-6.67-12.45-10.22-18.54-22.93 7.74-45.86 15.49-68.8 23.24-5.56 24.52 24.27 59.18 39.31 73.97 6.89 6.78-3.72 17.38-10.61 10.61-30.84-30.34-71.04-102.49-21.7-137.29 56.95-40.17 88.55 55.88 116.15 82.68 81.75 79.37 202.45 32.09 300.91 18.69 60.93-8.29 133.72-17.29 163.89 49.34 2.74 6.07-3.46 15.05-10.27 10.26-89.59-63.03-217.14 17.2-313.45 28.57-82.28 9.71-169.17 1.07-235.53-52.25-7.53-6.05 3.14-16.6 10.61-10.61" fill="#45284f"/><path d="m2579.5 3230.8c25.82 2.82 49.31 14.62 66.11 31.04 16.17 15.82 27.15 33.26 47.89 45.32 19.9 11.57 45.42 14.96 69.52 15.58 8.99 0.24 18.04 0.14 27.09 0.05 21.49-0.23 42.96-0.46 63.56 3.69 26.86 5.4 51.18 18.35 68.33 36.35 12.42 13.04 20.99 28.44 29.01 43.85 6.7 12.89 13.08 25.89 19.47 38.89-55.6-27.19-118.41-48.18-183.81-44.6-44.27 2.42-88.51 16.03-132.18 11.37-44.83-4.77-82.74-28.15-116.5-52.7-14-10.19-27.66-20.7-40.94-31.54-13.8-11.26-28.13-24.82-27.13-41.39 2.25-37.02 74.37-59.78 109.58-55.91" fill="#fcda77"/><path d="m2581.5 3223.6c35.81 6.46 57.48 22.37 82.95 47.45 47 46.27 91.82 41.97 153.4 44.33 87.31 3.35 123.08 53.25 159.11 126.45 3.42 6.93-3.4 13.5-10.25 10.26-45.74-21.61-93.75-39.48-144.64-43.2-44.06-3.23-86.41 8.21-130.01 11.2-72.68 4.98-130.29-31.21-185.38-74.75-25-19.75-58.48-45.97-36.44-79.92 20.95-32.26 73.79-43.81 109.27-42.08 9.6 0.46 9.66 15.47 0 15-20.29-0.99-39.88 2.75-58.73 10.17-8.25 3.25-30.46 10.92-34.13 20.34-6.76 17.34 5.83 41.68 15.71 53.98 38.19 47.56 121.61 84.51 180.3 82.64 53.6-1.72 103.76-16.73 157.85-9.64 47.06 6.16 91.14 23.17 133.77 43.31-3.42 3.42-6.85 6.84-10.27 10.26-22.76-46.23-44-93.78-96.55-111.52-25.07-8.46-51.23-8.04-77.39-7.62-18.86 0.31-37.72 0.62-56.19-2.4-66.43-10.85-90.68-77.94-156.37-89.79-9.48-1.72-5.47-16.17 3.99-14.47" fill="#45284f"/><path d="m2534.5 3278.1c55.01 14.2 52.42 71.4 98.32 95.05 18.4 9.48 41.33 10.78 63.28 10.19 36.55-0.98 72.94-6.47 109.49-8.53 36.53-2.06 74.15-0.49 106.98 11.93 32.82 12.43 60.22 37.35 64.61 67.88-22.89-16.94-53.22-26.62-84.22-26.9-43.65-0.38-85.23 16.91-127.47 27.85-32.84 8.49-66.7 13.22-100.54 16.78-12.81 1.35-25.68 2.54-38.5 2.17-14.94-0.44-29.61-2.99-43.79-6.56-29.84-7.51-57.85-19.6-82.32-35.51-36.63-23.83-66.06-58.35-69.22-98.03-1.52-19.1 4.86-40.29 27.53-48.2 25.15-8.78 49.45-14.93 75.85-8.12" fill="#c99dd4"/><path d="m2536.5 3270.9c31.23 10.9 44.99 30.45 63.01 57 43.18 63.57 112.43 47.19 178.7 41.53 73.2-6.25 183.63-5.49 206.21 83.23 1.54 6.05-5.36 12.16-11.02 8.47-85.65-55.9-182.3 1.68-272.64 14.44-71.14 10.04-135.42 5.49-197.93-32.8-39.69-24.3-85.92-69.33-78.96-120.9 6.95-51.52 70.95-57.95 112.63-50.97 9.51 1.59 5.47 16.05-3.98 14.46-46-7.7-52.93-3.07-74.51 31.69-18.31 29.5-20.13 35.63-2.3 62.97 17.41 26.71 45.87 46.54 74.02 60.6 62.13 31.02 125.45 28.25 192.26 16.53 89.01-15.61 174.09-64.38 258.99-8.98-3.68 2.83-7.36 5.65-11.03 8.48-22.38-87.96-123.97-79.41-210.77-70.86-33.19 3.27-64.22 6.54-87.83 4.42-24.09-2.17-45.62-8.96-63.22-26-28.32-27.38-33.82-64.26-75.61-78.85-9.05-3.16-5.17-17.65 3.98-14.46" fill="#45284f"/><path d="m2441.8 3442.7c18.39 16.18 41.4 28.94 65.73 37.19 75.44 25.56 164.23 18.47 242.36-2.04 40.74-10.7 79.81-26.91 121.48-33.97 41.67-7.07 88.6-3.31 117.9 21.33-8.08-24.33-32.03-43.93-61.06-49.97-19.53-4.07-40.31-2.3-60.55-0.08-46.53 5.09-92.49 12.87-138.39 21.62-44.2 8.42-92.79 14.45-136.08 3.14-41.75-10.91-78.12-46.24-96.58-78.75-6.97-12.27-12.17-25.54-22.18-36.11-10.03-10.58-26.69-18.12-42.5-14.03-14.28 3.7-20.38 11.22-25.69 23.05-17.14 38.21 5.26 81.96 35.56 108.62" fill="#8387cc"/><path d="m2447.1 3437.4c90.62 72.8 223.01 57.02 326.8 25.69 70.93-21.42 151.91-51.67 219.16-4.36l-10.27 10.27c-33.65-74.35-137.46-44.84-199.84-34.33-54.31 9.14-109.39 23.85-164.87 17.21-38.18-4.56-70.53-20.65-97.73-47.88-13.63-13.64-23.85-28.64-33.53-45.28-3.26-6.26-6.67-12.44-10.21-18.54-22.94 7.75-45.87 15.5-68.8 23.25-5.56 24.52 24.26 59.18 39.29 73.97 6.9 6.77-3.71 17.38-10.6 10.6-30.84-30.33-71.04-102.48-21.7-137.28 56.96-40.17 88.55 55.88 116.16 82.68 81.74 79.36 202.44 32.08 300.9 18.69 60.93-8.29 133.72-17.29 163.88 49.33 2.76 6.07-3.45 15.05-10.25 10.27-89.59-63.04-217.16 17.2-313.46 28.56-82.29 9.72-169.17 1.07-235.53-52.25-7.53-6.04 3.15-16.6 10.6-10.6" fill="#45284f"/><path d="m2770.1 3023.6c12.56 5.75 24.16 13.53 34.07 23.12 19.53 18.9 32.57 43.47 50.53 63.86 46.44 52.7 114.48 27.37 175.27 39.6 39.43 7.94 68.85 32.47 92.28 64.13 4.34 5.87 8.4 12.02 11.27 18.75 11 25.84 2.94 55.4-5.23 82.27-0.73-12.13 5.01-33.91 0.9-45.34-2.06-5.7-3.42-8.02-7.5-12.5-3.77-4.14-10.11-13.83-15.02-16.51-41.86-22.84-96.06-18.91-143.7-16.3-44.27 2.42-88.51 16.02-132.18 11.37-44.83-4.78-82.74-28.15-116.49-52.71-14.01-10.18-27.66-20.7-40.95-31.54-27.17-22.16-57.86-57.56-39.8-94.65 8.63-17.73 25.54-30.4 43.91-37.57 29.66-11.58 63.66-9.23 92.64 4.02" fill="#fcda77"/><path d="m2773.9 3017.1c47.62 25.02 63.3 79.42 107.46 106.18 27.53 16.68 59.87 16.48 92.17 16.28 22.43-0.14 44.84-0.28 65.61 5.23 36.56 9.7 67.29 34.33 89.01 64.95 24.42 34.42 18.52 68.98 7.39 107.55-2.3 7.94-15.07 6.67-14.74-1.99 0.84-21.59 4.56-43.67-11.49-61.34-22.07-24.31-67.05-23.77-97.2-23.82-42.34-0.08-82.96 6.73-124.88 11.62-82.01 9.57-141.41-23.04-204.24-72.78-33.65-26.65-79.35-67.61-55.91-115.65 26.07-53.41 96.91-55.46 145.02-36.99 8.93 3.42 5.05 17.94-3.98 14.46-23.46-9-48.27-14.47-73.51-8.66-26.9 2.46-39.97 18.2-39.2 47.21-18.73 22.41-17.71 41.81 3.03 58.19 21.86 24.86 51.55 44.67 79.15 62.82 33.93 22.32 70.69 38.57 111.96 39.12 37.9 0.51 75.68-9.43 113.43-12.33 42.66-3.29 109.57-10.07 147.48 17.32 30.99 22.38 26.65 46.89 25.34 80.83-4.9-0.66-9.81-1.33-14.73-1.99 19.66-68.1-9.79-129.15-78.76-152.19-23.44-7.83-48.08-7.73-72.68-7.62-15.62 0.06-31.23 0.13-46.51-1.84-79.07-10.16-92.36-87.75-156.79-121.61-8.56-4.49-0.98-17.44 7.57-12.95" fill="#45284f"/><path d="m2710.8 3101.9c55.01 14.19 52.42 71.39 98.32 95.04 18.4 9.49 41.32 10.78 63.28 10.19 36.55-0.97 72.94-6.47 109.48-8.53 39.15-2.21 90.25-6.21 122.7 19.84 15.24 12.24 26.01 30.33 28.08 49.77 1.72 16.13-2.38 32.25-6.46 47.96 0.93-9.64 1.85-19.38 0.55-28.98-1.29-9.6-5.02-19.19-12.11-25.78-19.15-17.84-57.31-10.75-80.44-6.79-31.5 5.37-61.56 16.76-92.42 24.74-32.83 8.5-66.69 13.22-100.54 16.79-12.8 1.35-25.68 2.53-38.49 2.16-14.94-0.43-29.61-2.99-43.8-6.56-29.83-7.51-57.85-19.59-82.31-35.5-36.64-23.84-66.06-58.36-69.22-98.04-1.52-19.1 4.86-40.28 27.52-48.2 25.16-8.77 49.45-14.93 75.86-8.11" fill="#c99dd4"/><path d="m2712.8 3094.6c35.9 12.53 47.95 37.04 69.14 66.5 45.86 63.74 146.74 32.4 213.4 29.18 87.75-4.23 162.44 28.24 138.11 127.83-1.97 8.05-15.38 6.56-14.74-2 6.4-84.21-85.03-55.35-128.96-42.93-37.45 10.59-74.06 20.64-112.69 26.09-71.14 10.05-135.42 5.5-197.94-32.79-39.69-24.31-85.91-69.33-78.95-120.91 6.94-51.52 70.95-57.95 112.63-50.97 9.5 1.6 5.47 16.05-3.98 14.47-34.69-5.81-99.6-0.54-92.16 60.11 2.34 19.14 19.11 41.38 31.77 54.51 24.43 25.37 57.53 42.94 90.56 54.2 69.42 23.67 147.17 9.16 216.18-10.05 65.22-18.16 186.97-62.77 178.54 48.27-4.9-0.66-9.81-1.33-14.73-1.99 30.04-122.96-89.94-113.61-185.63-104.27-30.02 2.94-57.65 5.87-77.5 4.71-26.86-1.56-51.66-7.52-71.43-26.64-28.31-27.39-33.81-64.27-75.6-78.85-9.06-3.16-5.17-17.66 3.98-14.47" fill="#45284f"/><path d="m2618.1 3266.4c18.38 16.18 41.4 28.95 65.73 37.19 75.44 25.57 164.23 18.47 242.36-2.04 50.38-13.22 92.17-32.86 145.39-34.24 18.27-0.48 28.46 3.96 39.89 17.66 6.72 8.06 7.69 19.37 7.58 29.86-0.11 12.35-1.83 25.86-10.78 34.37 2.91 2.67 7.51 0.09 10.34-2.66 18.25-17.68 28.02-44.94 21.33-69.47-12.42-45.54-58.72-42.28-95.99-38.2-46.52 5.08-92.49 12.86-138.39 21.61-44.19 8.42-92.79 14.46-136.08 3.14-41.74-10.91-78.12-46.24-96.58-78.75-6.96-12.27-12.16-25.53-22.18-36.11s-26.69-18.11-42.5-14.02c-14.28 3.69-20.37 11.21-25.68 23.04-17.15 38.22 5.26 81.97 35.56 108.62" fill="#8387cc"/><path d="m2623.4 3261.2c115.35 92.68 261.99 38.38 388.14 7.5 63.94-15.65 131.46-7.97 109.95 74.44 10.48-40.16 24.67-86.61-32.47-97.64-11.05-2.13-22.55-1-33.66-0.19-32.17 2.36-64.33 7.81-96.11 13.16-51.43 8.65-103.84 22.66-156.46 18.22-41.35-3.5-76.69-19.4-106.14-48.88-13.63-13.64-23.86-28.65-33.54-45.29-3.26-6.25-6.66-12.44-10.21-18.54-22.93 7.75-45.87 15.5-68.8 23.25-5.56 24.52 24.27 59.18 39.3 73.97 6.89 6.78-3.71 17.39-10.61 10.6-31.77-31.26-77.46-128.92-4.57-144.46 38.4-8.19 54.87 27.31 71.16 53.84 43.42 70.74 112.66 87.82 191.27 77.38 55.08-7.31 109.31-19.71 164.59-26.08 28.67-3.3 64.94-8.88 90.08 9.7 31.03 22.93 32.69 121.32-19.04 114.35-4.69-0.63-6.94-7.38-4.48-11.02 3.25-10.19 6.5-20.39 9.75-30.58-13.32-13.34-26.65-26.68-39.97-40.02-11.21-4.31-35.84 3.66-48.15 6.28-21.29 4.53-41.93 11.87-62.71 18.2-42.54 12.96-85.71 22.76-130.1 26.48-77 6.44-156.27-4.6-217.83-54.07-7.52-6.04 3.16-16.59 10.61-10.6" fill="#45284f"/><path d="m2923.5 1562.6c33.7 0.1 67.67 3.42 99.91 14.88 62.99 22.41 116.5 74.83 180.77 91.58 74.56 19.44 121.54-22.8 183.19-62.47 40.22-25.88 86.64-35.65 132.47-38.86 35.93-2.52 73.08-1 106.13 15.63 42.95 21.61 74.58 66.91 94.08 116.55 19.5 49.65 28.29 103.96 36.91 157.64-74.38-115.58-213.47-167.97-331.67-124.93-47.33 17.24-78.96 56.62-121.88 82.85-49.83 30.46-109.69 23.54-165.39 14.54-30.33-4.9-60.71-10.22-90.11-20.13-16.16-5.44-31.95-12.23-47.73-19.03-35.09-15.11-70.54-30.44-102.59-53.27-14.82-10.55-27.9-23.68-42.99-33.38-14.22-9.14-26.36-20.92-35.27-37.19-48.58-88.66 52.28-104.41 104.17-104.41" fill="#fcda77"/><path d="m2923.5 1555.1c40.82 0.82 80.2 5.35 118.06 21.58 41.15 17.64 76.7 45.6 116.47 65.82 64.17 32.64 118.51 26.63 178.14-11.1 39.9-25.26 75.23-50.73 121.79-62 70.42-17.06 153-18.53 208.89 33.98 68.02 63.91 83.22 164.79 97.34 252.18 1.34 8.27-8.74 13.11-13.71 5.78-76.52-113.1-235.63-182.57-360.49-101.7-48.74 31.56-82.72 74.14-143.24 83.29-58.21 8.81-127.19-4.5-183.08-20.39-58.09-16.5-120.85-43.22-169.87-78.49-37.56-27.02-87.11-57.98-93.96-108.75-9.02-66.97 74.59-79.48 123.66-80.2 9.65-0.15 9.66 14.85 0 15-35.08 0.52-94.22 3.96-106.67 44-18.74 60.29 84.18 120.16 127.33 142.81 114.11 59.86 278.21 114.63 390.25 27.06 66.5-52 129.8-83.82 217.04-70.61 88.64 13.42 162.46 67.2 211.99 140.4-4.57 1.93-9.14 3.86-13.71 5.78-14.6-90.3-30.3-208.75-115-262.53-93.77-59.53-209.67-4.11-290.99 47.34-55.55 35.14-109 47.5-171.42 21.54-34.31-14.27-64.62-36.17-96.66-54.63-48.8-28.11-95.9-40.03-152.16-41.16-9.64-0.2-9.67-15.2 0-15" fill="#45284f"/><path d="m2875.5 1651.9c67.47-19.19 136.41 8.24 194.93 46.92 49.69 32.85 106.94 77.69 166.48 79.47 53.87 1.62 94.93-40.44 138.91-69.6 47.86-31.75 102.67-49.24 157.72-49.92 56.15-0.69 114.14 17.03 156.52 60.07 42.75 43.44 65.36 107.23 86.53 168.63-65.98-56.96-144.39-104.35-226.15-96.34-109.36 10.74-194.11 115.52-297.95 156.98-68.06 27.16-143.05 25.96-212.66 4.86-56.24-17.04-109.18-46.65-158.11-82.93-44.19-32.76-58.75-79.06-63.57-140.55-3.4-43.59 22.81-67.76 57.35-77.59" fill="#c99dd4"/><path d="m2873.5 1644.7c95.43-21.74 169.4 28.25 246.02 78.09 53.43 34.76 111.96 64.12 174.33 32.86 43.63-21.88 77.96-57.85 122.96-78.06 69.88-31.39 155.63-37.69 225.45-2.43 81.71 41.25 113.42 129.16 141.57 210.35 2.66 7.69-7.32 11.7-12.54 7.29-61.16-51.51-134.98-101.21-218.77-93.75-60.87 5.42-112.83 40.23-161.81 74.17-93.4 64.75-181.41 116.93-299.84 98.98-87.18-13.22-213.25-63.77-256.87-146.47-34-64.46-39.92-153.93 39.5-181.03 9.16-3.13 13.09 11.36 3.99 14.46-68.07 23.23-59.06 105.62-30.54 159 25.6 47.92 81.91 78.46 129.38 101.48 118.95 57.68 240.04 51.79 350.51-20.56 68.81-45.06 136.28-106.33 221.61-115.14 89.13-9.22 168.43 43.5 233.44 98.26-4.18 2.43-8.36 4.86-12.53 7.29-34.25-98.82-76.61-199.6-191.81-219.77-103.7-18.16-175.7 35.74-257.59 87.93-53.35 33.98-103.38 33.91-159.69 6.48-94.15-45.89-167.44-131.24-282.78-104.97-9.4 2.15-13.41-12.31-3.99-14.46" fill="#45284f"/><path d="m3136 2021.8c65.12 1.03 144.86-13.17 200.27-55.39 41.08-31.3 72.34-71.7 110.69-106.61 37.94-34.51 79.8-41.43 126.36-44.15 90.67-5.29 186.94 30 246.32 113.5-33.82-130.5-156.19-206.49-272.74-214.47-135.95-9.31-216.74 160-348.82 171.45-73.78 6.4-149.75-15.27-211.08-64.15-36.43-29.04-66.34-82.55-107.21-101.27-21.75-9.96-49.17-8.18-65.29 11.57-65.94 80.82 111.07 218.68 160.32 247.16 46.77 27.05 103.48 41.45 161.18 42.36" fill="#8387cc"/><path d="m3136 2014.4c89.63-0.11 168.15-23.84 233.4-86.99 48.6-47.02 87.02-100.33 156.9-113.91 114.6-22.28 229.47 18.74 299.81 111.96-4.57 1.92-9.14 3.85-13.71 5.78-42.7-148.07-228.29-265.57-373.07-178.6-103.62 62.23-171.53 156.59-304.63 139.72-64.1-8.12-126.7-36.81-172.33-82.89-24.74-24.98-44.71-57.91-75.48-76.26-58.2-34.7-89.02 24.72-73.33 70.27 18.7 54.27 71.66 99.92 115.41 134.66 60.69 48.2 128.76 73.19 207.03 76.26 9.63 0.38 9.67 15.38 0 15-116.01-4.55-209.81-59.26-286.05-144.29-35.56-39.66-104.99-162.51-4.92-177.15 56.82-8.32 94.35 57.35 127.95 90.91 63.44 63.37 169.81 99.54 257.94 73.34 110.43-32.83 176.52-159 297.82-165.01 134.99-6.69 261.67 93.65 298.13 220.05 2.52 8.76-8.89 12.17-13.71 5.78-89.93-119.19-275.56-154.28-385.59-43.9-43.27 43.41-82.32 89.24-140.06 113.48-47.87 20.1-99.96 26.73-151.51 26.79-9.65 0.02-9.66-14.98 0-15" fill="#45284f"/><path d="m1739.3 1256.1c-37.99-77.56-97.46-193.37-57.05-260.91 36.84-61.61 120.34-14.379 156.01 23.35 29.58 31.3 49.53 70.21 70.16 108 75.52 138.41 199.63 197.46 336.26 263.64 79.82 38.66 168.12 102.69 168.07 200.87-0.1 198.66-273.59 220.79-407.12 149.52-77.27-41.24-109.36-129.65-144.13-204.71-37.45-80.83-69.73-163.03-105.53-244.48-4.58-10.42-10.33-22.32-16.67-35.28" fill="#fcf6fb"/><path d="m1838.3 1018.5c18.56 19.64 33.32 42.27 46.85 65.75-3.46 4.63-8.26 8.83-14.94 12.34-16.1 8.48-35.6 0.71-52.05-7.05 9.9 4.67-7.77 31.27-11.64 34.79-9.36 8.46-25.31 16.8-38.24 16.67-6.61-0.08-34.21-9.44-29.28-20.81-3.37 7.77-1.55 17.05-4.94 24.8-2.88 6.57-9.13 11.09-15.68 14.03-7.82 3.51-15.27 4.39-22.34 3.32-24.36-60.36-39.74-123.75-13.74-167.19 36.84-61.61 120.34-14.379 156 23.35" fill="#e34e90"/><path d="m1879.4 1090.4c-2.59 2.25-5.65 4.35-9.25 6.24-4.97 2.62-10.26 3.69-15.69 3.69-10.12 0-20.72-3.73-30.54-8.07 8.51 19.31 15.88 39.23 23.45 58.91 47.52 123.57 136.37 196.2 238.64 265.82 31.12-20.24 64.74-36.31 99.89-48.48-94.44-48.34-185.95-99.58-250.78-186.39-12.92-17.02-24.91-35.45-35.89-55.57-6.56-12.03-13.06-24.18-19.83-36.15" fill="#efcae8"/><path d="m1742.9 972.89c-4.59 0-9.27 0.328-14.09 1.019-2.97 0.422-5.8 0.961-8.5 1.621 29.04 12.481 56.39 37.909 71.82 59.299 12.85 17.83 22.95 37.29 31.83 57.41 9.82 4.34 20.42 8.07 30.54 8.07 5.43 0 10.72-1.07 15.69-3.69 3.6-1.89 6.66-3.99 9.25-6.24-14.48-25.64-30.17-50.51-50.33-71.85-13.77-14.57-34.67-30.51-57.26-41.042-9.15-2.968-18.78-4.597-28.95-4.597" fill="#d53f83"/><path d="m1732.8 1259.9c-33.49-68.26-84.09-154.07-69.65-233.34 11.83-65.02 68.35-81.251 123.55-54.688 83.91 40.358 109.03 132.35 160.89 202.24 62.71 84.5 154.43 137.29 246.96 183.31 73.69 36.65 155.12 71.28 199.93 144.71 33.34 54.63 34.56 126.66 1.4 181.85-63.9 106.38-222.82 116.76-330.44 87.68-84.19-22.74-136.37-77.93-174.78-154.74-58.24-116.46-100.94-240.03-157.86-357.02-4.21-8.64 8.72-16.26 12.95-7.57 38.96 80.06 70.2 163.75 106.45 245.03 31.36 70.34 59.94 155.96 118.5 208.87 85.72 77.45 246.18 85.1 345.67 31.17 55.05-29.83 89.42-82.96 88.86-146.34-0.8-90.48-79.01-150.55-152.34-188.4-123.45-63.72-251.42-119.25-331.06-239.38-42.23-63.69-93.01-203.64-193.08-189.35-119.55 17.07-9.05 225.3 17 278.4 4.24 8.64-8.7 16.25-12.95 7.57" fill="#45284f"/><path d="m2092.1 2350c-9-2.65-17.97-4.92-26.77-6.83-82.9-18.03-234.4-40.74-306.23 18.48-40.67 33.53-52.94 97.07-36.28 145.88 16.22 47.53 60.46 71.8 104.52 89.28 108.42 43.02 239.52 67.78 346.32 5.12 45.75-26.84 69.86-80.28 57.05-133.34-15.67-64.85-77.69-100.62-138.61-118.59" fill="#fcf6fb"/><path d="m1907 2323.5h-1.77c58.11 0.21 117.98 10.59 160.12 19.75 4.12 0.89 8.27 1.87 12.45 2.92 0.52-0.17 1.04-0.33 1.55-0.5-3.5-0.86-7-1.67-10.46-2.42-42.56-9.26-103.23-19.75-161.89-19.75" fill="#98a8dd"/><path d="m1905.2 2323.5c-54.96 0.2-107.99 9.72-142.56 38.23-8.87 7.31-16.39 16.06-22.56 25.76 9.77-11.15 21.73-20.37 35.95-26.72 14.98-6.68 31.12-9.62 47.46-9.62 0.56 0 1.12 0 1.67 0.01 21.82 0.2 43.92 5.61 63.99 14.34 32.74 14.23 61.16 36.46 88.86 59.07 25.76-36.22 58.3-64.84 99.76-78.4-4.18-1.05-8.33-2.03-12.45-2.92-42.14-9.16-102.01-19.54-160.12-19.75" fill="#efcae8"/><path d="m2109.7 3578.5c-58.41 3.45-111.99-20.22-177.42-52.6-140.71-69.64-88.14-206.83-21.4-312.42 49.26-77.93 111.11-147.62 155.27-228.83 44.47-81.77 71.46-176.91 85.9-268.58 30.27-192.2 5.78-399.77-90.33-570.97-92.11-164.06-197.38-346.75-122.14-538.79 62.57-159.7 217.09-245.96 382.57-257.62 382.61-26.95 622.04 289.04 690.25 633.58 117.12 591.67-289.35 1282.6-802.85 1564.9-36.33 19.97-68.77 29.49-99.85 31.33" fill="#fcf6fb"/><path d="m2365.3 1353.9c-78.7-0.01-157.07 16.45-227.52 51.01-85.98 42.18-155.8 113.87-190.99 203.41-42.05 107-25.5 220.44 15.8 324.73 39.27 99.22 101.62 186.58 142.81 284.63 16.36 38.92 29.51 79.05 39.65 119.93 35.45 1.68 68.42 12.65 97.99 30.11-16.16-53.66-37.78-105.56-65.25-154.48-92.1-164.06-197.38-346.75-122.14-538.8 52.6-134.24 206.63-228.67 349.27-228.66 27.04 0 53.69 3.4 79.14 10.56 10.47-28.96 28.15-54.3 50.3-77.01-54.56-16.75-111.89-25.43-169.06-25.43" fill="#efcae8"/><path d="m2109.7 3586c-80.49 1.44-195.71-38.27-245.97-104.65-43.22-57.08-28.59-131.12-2.21-192.05 39.7-91.67 107.44-166.88 162.19-249.38 71.03-107.04 109.7-229.98 125.49-356.94 14.79-118.97 8.52-241.23-22.61-357.18-32.23-120.01-101.05-219.79-153.32-330.94-83.91-178.43-99.96-386.3 54.53-532.17 125.77-118.77 318.42-146.56 481.98-106 160.12 39.71 290.25 150.15 377.88 287.3 200.75 314.17 184.19 714.83 53.22 1051.8-76.91 197.83-191.11 381.1-332.9 538.94-70.59 78.58-148.47 150.73-232.99 214.14-76.63 57.49-167.07 127.87-265.29 137.15-9.61 0.9-9.54-14.1 0-15 89.91-8.49 175.59-74.48 246.49-126.76 72.16-53.21 139.43-112.96 201.58-177.56 125.28-130.2 230.32-280.19 310.21-442.23 152.88-310.05 214.95-678.48 88.94-1008.6-59.04-154.71-159.83-299.92-304.71-384.95-152.59-89.54-354.09-104.64-514.41-25.99-85.98 42.18-155.8 113.87-190.99 203.41-42.05 107-25.5 220.44 15.8 324.73 39.27 99.22 101.62 186.58 142.81 284.63 36.31 86.4 56.82 178.77 63.71 272.12 16.71 226.38-44.31 438.6-177.33 621.29-56.38 77.44-126.98 163.2-139.21 261.75-16.13 130.07 147.7 200.14 257.11 198.18 9.66-0.18 9.66 14.82 0 15" fill="#45284f"/><path d="m2448.8 2935.4c243.28 270.24-144.95 559.75-390.72 593.63-42.46 5.85-86.81 7.05-127.06-7.65-97.68-35.66-97.7-158.01-96.36-246.38 1.58-103.32 12.95-206.22 24.32-308.93 17.4-157.26 22.31-304.13 83.09-453.05 23.13-56.68 53.77-114.37 106.41-145.63 99.78-59.25 235.86 7.42 292.6 108.65s56.07 223.5 54.75 339.53c-0.24 20.86-0.33 42.37 7.59 61.66 9.41 22.88 28.83 39.78 45.38 58.17" fill="#fcf6fb"/><path d="m3024.2 2166.2c-10.91 168.54-56.65 338.4-128.47 499.01 0.02 0.01 0.05 0.03 0.07 0.03v-0.01c11.35 5.24 22.72 11.14 34.04 17.53 62.81-165.07 98.49-341.45 94.36-516.56m-287.28 780.5c-69.22 100.13-148.32 192.79-234.36 274.37-70.66 159.48-286.86 286.33-444.47 308.06-17.74 2.44-35.81 4.08-53.77 4.08-9.13 0-18.23-0.43-27.24-1.38 3.36 5.78 7.25 11.4 11.71 16.85 38.86 14.81 80.37 22.43 116.45 22.43 1.52 0 3.01-0.02 4.51-0.04 89.91-8.49 175.59-74.48 246.49-126.76 72.16-53.21 139.43-112.96 201.58-177.56 81.63-84.84 154.67-178.07 217.75-277.58-14.1-13.11-27.08-27.21-38.65-42.47" fill="#efcae8"/><path d="m1937.7 3523.7c15.92 9.79 33.19 18.1 51.01 24.9-4.46-5.45-8.35-11.07-11.71-16.85-13.35-1.4-26.51-3.97-39.3-8.05" fill="#e1a4d4"/><path d="m3025.5 2141.5c-0.37 8.2-0.82 16.42-1.35 24.63 4.13 175.11-31.55 351.49-94.36 516.56 0.59 0.34 1.17 0.66 1.76 1 67.2-176.59 102.18-361.78 93.95-542.19m-249.98 847.6c-63.08 99.51-136.12 192.74-217.75 277.58-62.15 64.6-129.42 124.35-201.58 177.56-70.9 52.28-156.58 118.27-246.49 126.76-1.5 0.02-2.99 0.04-4.51 0.04-36.08 0-77.59-7.62-116.45-22.43-17.82-6.8-35.09-15.11-51.01-24.9h-0.01c-0.56 2.64-2.28 4.89-4.8 5.42 58.27 28.64 107.37 49.7 159.51 49.7 3.77 0 7.55-0.11 11.36-0.33 31.07-1.84 63.52-11.36 99.85-31.33 222.69-122.45 425.23-321.71 573.67-556.42-0.6-0.54-1.19-1.1-1.79-1.65m-934.63 438.57c4.62 20.66 14.13 40.13 29.87 57.65-13.51-16.85-23.12-36.45-29.87-57.65" fill="#412347"/><g fill="#efcae8"><path d="m2502.5 3221c-92.73 87.92-193.53 163-298.87 220.92-36.33 19.97-68.78 29.49-99.85 31.33-3.81 0.23-7.58 0.34-11.35 0.34-54.08 0-104.9-22.67-166.07-52.94-11.86-5.87-22.35-12.22-31.57-18.99 8.9 38.28 20.66 79.49 40.09 113.63 1.65 1.29 2.57 3.08 2.9 4.94 0.58 0.98 1.18 1.94 1.78 2.89-0.56-0.18-1.12-0.35-1.68-0.52-0.04 0.38-0.09 0.75-0.17 1.11h0.01c12.79 4.08 25.95 6.65 39.3 8.05 9.01 0.95 18.11 1.38 27.24 1.38 17.96 0 36.03-1.64 53.77-4.08 157.61-21.73 373.81-148.58 444.47-308.06"/><path d="m2127.8 2350.4c-40.81 0-75.22 15.94-104.3 43.25 65.76 3.18 133.96 35.64 178.97 85.24 58.17 64.1 87.83 146.78 109.41 231.71 37.73 49.46 55.82 96.55 34.11 133.17 2.06 4.21 4.42 8.27 7.15 12.13 13.9 19.64 35.77 31.64 55.59 45.36-29.63-44.72-19.7-100.89-20.19-152.43-1.35-142.28-25.54-307.66-169.22-375.35-33.63-15.85-64.03-23.08-91.52-23.08"/><path d="m1850 3127.8c-5.75 66.4-9.7 133.23-7.78 199.79 0.2 7.13 0.51 14.34 0.98 21.58 0.79-3.4 1.65-6.81 2.59-10.22 8.56 23.2 24.21 44.5 49.06 62.76-2.44-10.51-4.67-20.8-6.78-30.66-17.18-80.29-28.26-161.7-38.07-243.25"/></g><path d="m1845.8 3338.9c-0.94 3.41-1.8 6.82-2.59 10.22 4.29 67.04 21.67 136.53 89.82 165.05 0.72 0.31 1.36 0.69 1.92 1.12-19.43-34.14-31.19-75.35-40.09-113.63-24.85-18.26-40.5-39.56-49.06-62.76m92.05 181.33c0.14 0.79 0.16 1.59 0.1 2.37 0.56 0.17 1.12 0.34 1.68 0.52-0.6-0.95-1.2-1.91-1.78-2.89" fill="#e1a4d4"/><path d="m1929 3528.7c-116.27-48.67-104.85-197.37-100.42-302.01 4.21-99.29 16.57-197.85 26.7-296.64 9.07-88.39 15.89-177.3 33.67-264.51 24.36-119.47 74.8-307.75 220.28-326.42 134.33-17.24 239.89 100.08 272.78 218.42 25.14 90.47 16.98 181.44 21.27 273.84 2.91 62.59 52.28 93.27 84.18 141.5 22.59 34.15 37.13 71.01 43.7 111.4 1.55 9.44-12.91 13.5-14.46 3.99-12.58-77.23-58.93-121.88-103.92-181.34-34.48-45.58-23.67-104.34-24.18-158.06-1.35-142.28-25.54-307.66-169.22-375.35-334.7-157.7-349.12 538.15-366.11 717.93-7.41 78.32-13.35 157.42-11.08 236.15 2.11 73.13 15.29 155.03 90.8 186.63 8.77 3.68 4.92 18.2-3.99 14.47" fill="#45284f"/><path d="m3484.3 3229c23.76-1.43 47.07-5.09 69.49-11.67 14.37-4.22 28.65-10.17 39.53-20.48 37.17-35.2 7.17-104.11-25.69-131.24-37.48-30.93-86.95-41.83-133.13-56.96-118.53-38.87-217.42-116.37-316.01-190.08-81.87-61.2-227.58-193.46-338.09-176.62-87.14 13.29-109.62 116.71-95.43 189.19 25.86 131.97 135.52 206.78 251.27 257.32 96.92 42.31 196.5 79.47 299.37 104.6 76.9 18.79 165.62 40.94 248.69 35.94" fill="#fcf6fb"/><path d="m3593.3 3197.5c-10.88 10.3-25.16 16.24-39.53 20.47-22.42 6.59-45.73 10.24-69.49 11.67-35.65 2.15-72.31-0.86-108.66-6.31 0.14-2.49 0.26-4.96 0.78-7.68 3.73-19.63 23.73-31.07 41.66-39.89-10.79 5.31-21.56-28.06-21.92-33.79-0.88-13.83 2.87-33.23 11.84-44.25 4.58-5.62 31.49-22.92 37.89-10.91-4.38-8.21-13.58-12.99-17.92-21.21-3.68-6.97-3.29-15.42-1.34-23.06 3.59-14.03 11.97-22.96 23.03-28.45 41.64 12.93 84.56 24.59 117.96 52.16 32.87 27.13 62.87 96.03 25.7 131.25" fill="#e34e90"/><path d="m2943 2690.4c-0.01 0.02 0-0.01-0.01 0.01 66.8 39.97 130.71 94.73 175.5 128.21 98.59 73.71 197.48 151.21 316.01 190.08 46.18 15.13 95.65 26.03 133.13 56.96 7.74 6.39 15.32 15.1 21.91 25.14-6.57-10.04-14.15-18.75-21.89-25.14-37.47-30.93-86.95-41.83-133.12-56.96-118.54-38.87-217.43-116.37-316.02-190.08-44.8-33.49-108.71-88.25-175.51-128.22" fill="#98a8dd"/><path d="m2931.6 2683.7v0.01c3.82 2.17 7.61 4.39 11.41 6.67 0.01-0.02 0 0.01 0.01-0.01-3.79-2.27-7.61-4.5-11.42-6.67" fill="#412347"/><path d="m2895.8 2665.2v0.01c11.35 5.24 22.71 11.14 34.04 17.53v-0.01c-11.32-6.39-22.69-12.29-34.04-17.53" fill="#e1a4d4"/><path d="m2929.8 2682.7v0.01c0.58 0.33 1.18 0.67 1.76 1v-0.01c-0.59-0.34-1.17-0.66-1.76-1" fill="#3d1e40"/><path d="m2895.8 2665.2-27.42 60.22c91.44 32.96 188.75 118.84 250.15 164.74 98.59 73.7 197.48 151.21 316.02 190.07 2.95 0.97 5.92 1.92 8.89 2.86-4.76-6.1-11.82-10.57-15.45-17.46-3.68-6.97-3.29-15.42-1.34-23.06 3.59-14.03 11.97-22.96 23.03-28.45 41.64 12.93 84.56 24.59 117.96 52.16 19.12 15.79 37.28 45.71 41.79 74.92-2.56-17.58-10.1-35.47-19.87-50.41-6.59-10.04-14.17-18.75-21.91-25.14-37.48-30.93-86.95-41.83-133.13-56.96-118.53-38.87-217.42-116.37-316.01-190.08-44.79-33.48-108.7-88.24-175.5-128.21-3.8-2.28-7.59-4.5-11.41-6.67-0.58-0.33-1.18-0.67-1.76-1-11.33-6.39-22.69-12.29-34.04-17.53" fill="#efcae8"/><path d="m3449.6 3014.1c-11.06 5.49-19.44 14.42-23.03 28.45-1.95 7.64-2.34 16.09 1.34 23.06 3.63 6.89 10.69 11.36 15.45 17.46 43.56 13.76 89.15 25.15 124.23 54.1 13.38 11.05 26.19 29.05 34.28 48.84 8.02-13.06 9.82-28.82 7.48-44.83-4.51-29.21-22.67-59.13-41.79-74.92-33.4-27.57-76.32-39.23-117.96-52.16" fill="#d53f83"/><path d="m2226.2 2881.2c33.69 7.25 66.86 7.19 92.24-9.85 161.42-108.4-259.14-379.91-333.71-441.04-29.95-24.55-60.4-49.41-95.91-64.85s-77.38-20.51-112.75-4.73c-53.59 23.91-75.18 88.73-67.53 143.59 12.03 86.38 94.02 141.45 158.97 188.65 104.23 75.77 230.65 160.64 358.69 188.23" fill="#fcf6fb"/><path d="m2318.4 2871.4c-25.38 17.04-58.55 17.1-92.24 9.85-46.58-10.04-92.93-27.72-138.09-49.72-0.71-8.24 1.35-17.17 7.18-26.85 10.32-17.1 33.06-20.88 52.93-22.93-11.96 1.23-10.46-33.79-8.81-39.29 3.98-13.27 14.24-30.16 26.48-37.38 6.25-3.68 37.5-10.55 39.32 2.93-1.24-9.21-8.22-16.89-9.43-26.11-1.03-7.81 2.27-15.61 6.76-22.08 11.4-16.46 27.83-21.08 46.01-18.56 89.6 86.68 148.15 177.58 69.89 230.14" fill="#e34e90"/><path d="m1825.2 2351.1c21.69 0.26 43.66 5.66 63.62 14.34 32.82 14.27 61.31 36.59 89.09 59.27 0.04-0.07 0.09-0.13 0.14-0.2-27.7-22.61-56.12-44.84-88.86-59.07-20.07-8.73-42.17-14.14-63.99-14.34" fill="#e1a4d4"/><path d="m1989.6 2433.9c-0.04 0.06-0.09 0.13-0.13 0.19 54.88 43.3 238.47 166.32 322.69 277.25-0.06-0.25-0.12-0.5-0.19-0.75-84.6-110.89-267.91-233.66-322.37-276.69m356.31 409.51c-5.95 10.17-14.96 19.54-27.45 27.93-0.1 0.06-0.2 0.13-0.3 0.2-0.04 0.02-0.07 0.04-0.1 0.07-0.26 0.17-0.52 0.34-0.78 0.5-0.61 0.4-1.22 0.78-1.84 1.15v0.01c1.12-0.67 2.3-1.2 3.39-1.93 12.36-8.3 21.3-17.54 27.25-27.58-0.05-0.12-0.11-0.24-0.17-0.35" fill="#efcae8"/><path d="m2311.9 2710.6c0.07 0.25 0.13 0.5 0.19 0.75 37.23 49.03 55.04 95.69 33.75 132.07 0.06 0.11 0.12 0.23 0.17 0.35 21.71-36.62 3.62-83.71-34.11-133.17" fill="#e1a4d4"/><path d="m1978 2424.5c-0.05 0.07-0.1 0.13-0.14 0.2 2.28 1.86 4.55 3.72 6.82 5.58 1.44 1.19 3.02 2.45 4.72 3.79 0.04-0.06 0.09-0.13 0.13-0.19-1.6-1.27-3.1-2.47-4.47-3.6-2.35-1.92-4.71-3.85-7.06-5.78" fill="#412347"/><path d="m1823.9 2351.1c-16.33 0-32.48 2.94-47.46 9.62-19.31 8.62-34.39 22.58-45.52 39.44 4.3-2.78 8.78-5.36 13.6-7.51 14.99-6.69 31.13-9.64 47.47-9.64 22.23 0.01 44.81 5.46 65.28 14.35 35.51 15.44 65.96 40.31 95.91 64.86 36.52 29.94 156.02 110.34 249.49 197.33 9.48-13.56 22.41-18.99 36.92-19 2.93 0 5.92 0.23 8.95 0.65 89.6 86.68 148.15 177.58 69.89 230.14 12.49-8.39 21.5-17.76 27.45-27.93 21.29-36.38 3.48-83.04-33.75-132.07-84.22-110.93-267.81-233.95-322.69-277.25-1.7-1.34-3.28-2.6-4.72-3.79-2.27-1.86-4.54-3.72-6.82-5.58-27.78-22.68-56.27-45-89.09-59.27-19.96-8.68-41.93-14.08-63.62-14.34-0.43-0.01-0.86-0.01-1.29-0.01m494.23 520.44c-0.04 0.02-0.07 0.04-0.1 0.07 0.03-0.03 0.06-0.05 0.1-0.07m-0.88 0.57c-0.61 0.4-1.22 0.78-1.84 1.15v0.01c0.62-0.38 1.23-0.76 1.84-1.16" fill="#efcae8"/><path d="m2239.6 2640.6c-14.51 0.01-27.44 5.44-36.92 19 81.61 75.95 143.38 156.93 112.74 213.72 0.62-0.38 1.23-0.76 1.84-1.16 0.26-0.16 0.52-0.33 0.78-0.5 0.03-0.03 0.06-0.05 0.1-0.07 0.1-0.07 0.2-0.14 0.3-0.2 78.26-52.56 19.71-143.46-69.89-230.14-3.03-0.42-6.02-0.65-8.95-0.65" fill="#d53f83"/><path d="m1847.8 3436.3c-32.86 12.67-66.15 25.44-101.12 29.58s-72.38-1.23-100.78-22.05c-5.31-3.89-10.45-8.56-12.74-14.73-1.91-5.15-1.65-10.84-0.84-16.27 3.79-25.47 18.72-47.95 35.74-67.27 23.07-26.21 51.29-48.7 84.16-60.47s70.75-11.92 101.71 4.22" fill="#fcf6fb"/><path d="m1849.8 3443.5c-53.5 20.51-113.15 42.47-170.73 24.75-32.06-9.86-60.17-27.29-52.58-63.68 20.05-96.07 143.49-159.87 231.23-121.77 8.84 3.84 1.21 16.76-7.56 12.95-72-31.26-178.84 18.5-203.13 95.73-34.47 109.59 156.19 53.89 198.79 37.56 9.01-3.46 12.92 11.04 3.98 14.46" fill="#45284f"/><path d="m1826.9 3395.2c10.81-3.26 20.98-8.31 31.09-13.34 1.98-0.99 4-2 5.64-3.5 2.33-2.12 3.72-5.09 4.77-8.07 3.6-10.26 3.66-21.72 0.16-32.02-0.62-1.83-1.37-3.66-2.65-5.11-1.63-1.85-3.97-2.91-6.3-3.72-9.32-3.27-19.52-3.46-29.24-1.71-9.72 1.74-19 5.36-27.94 9.57-11.32 5.34-22.35 11.78-30.87 20.95-7.86 8.45-17.61 24.94-13.19 37.09 2.2 6.04 11.03 4.5 16.26 4.71 8.21 0.33 16.44 0.4 24.64-0.14 9.34-0.61 18.65-2.02 27.63-4.71" fill="#f680a3"/><path d="m1858.8 3337.8c-16.46-0.88-33.79-1.6-49.77 3.21-20.46 6.17-49.05 25.59-43.51 50.07 2.13 9.41-12.33 13.42-14.46 3.99-5.86-25.88 10.89-44.1 31.21-57.45 23.21-15.24 49.45-16.26 76.53-14.82 9.6 0.51 9.67 15.51 0 15" fill="#45284f"/><path d="m1862.1 3389.4c-54.81 29.79-119.53 27.08-171.3-7.99-7.95-5.38-0.46-18.39 7.56-12.95 47.39 32.1 105.68 35.43 156.18 7.99 8.48-4.62 16.06 8.33 7.56 12.95" fill="#45284f"/><path d="m2024.7 3379.6c40.48 70.44-3.25 215.29-100.01 209.98-74.91-4.12-130.32-91.13-109.22-161.38 25.9-86.2 156.75-138.28 208.87-49.21l0.36 0.61" fill="#e34e90"/><path d="m2031.5 3375c7.08 44.28-3.68 88.3-31.03 124.06-32.99 43.14-78.46 55.96-130.39 62.47-12.74 1.59-12.62-18.42 0-20 42.75-5.36 81.47-15.1 110.39-49.28 26.14-30.89 38.13-72.01 31.75-111.93-2.01-12.59 17.25-18.01 19.28-5.32" fill="#fff"/><path d="m2031.2 3376.4c30.07 57.74 17.1 139.24-26.95 186.9-50.93 55.11-131.59 37.31-173.01-20.11-44.79-62.08-31.91-142.77 29.42-188.08 53.88-39.8 133.77-42.13 170.54 21.29 4.85 8.36-8.1 15.92-12.95 7.56-34.44-59.38-109.73-50.06-155.91-11.18-53.35 44.92-56.94 121.01-9.84 172.87 105.19 115.81 218.78-59.85 165.75-161.69-4.46-8.55 8.49-16.14 12.95-7.56" fill="#45284f"/><path d="m1901.5 3435.9c23.61 59.03-9.84 184.96-72.13 183.87-48.21-0.83-80.86-73.54-64.71-134.6 19.83-74.95 106.19-124.37 136.64-49.78l0.2 0.51" fill="#e34e90"/><path d="m1898.2 3421c17.11 41.79 13.6 89.06-12.48 126.76-24.72 35.73-71.94 46.57-113.07 45.38-12.84-0.38-12.89-20.38 0-20 37.51 1.09 80-8.3 100.44-42.79 19.25-32.48 19.88-69.7 5.82-104.04-4.87-11.9 14.47-17.08 19.29-5.31" fill="#fff"/><path d="m1908.8 3434.6c18.23 51.56 5.99 122.98-28.51 165.62-33.17 41-83.66 31.78-109.46-12.34-33.13-56.63-18.46-134.69 32.52-175.68 38.25-30.76 86.05-25.65 105.45 22.4 3.62 8.95-10.88 12.84-14.46 3.99-24-59.4-85.3-21.62-108.24 16.16-25.49 41.99-26.42 109.85 12.78 144.87 44.43 39.69 80.83-16.93 92.93-54.58 10.87-33.78 14.52-72.53 2.53-106.45-3.22-9.12 11.27-13.04 14.46-3.99" fill="#45284f"/><path d="m1809.9 3523.8c4.66 56.84-49.16 166.61-96.32 157.09-36.49-7.37-44.95-77.87-18.9-131.11 31.97-65.34 108.82-98.38 115.18-26.47l0.04 0.49" fill="#e34e90"/><path d="m1688.6 3645.6c31.92-8.12 56.47-31.32 73.73-58.68 13.23-20.96 35.19-65.97 15.55-89.56-8.18-9.82 5.9-24.05 14.14-14.14 22.76 27.33 10.56 69.44-3.61 98.03-19.11 38.53-51.93 72.81-94.49 83.64-12.48 3.17-17.81-16.11-5.32-19.29" fill="#fff"/><path d="m1817.4 3524.5c2.37 50.81-22.65 113.6-60.6 147.82-36.07 32.52-74.45 11.73-82.75-33.17-10.43-56.37 17.32-122.51 67.08-152.08 37.32-22.17 72.5-6.81 76.27 37.43 0.82 9.61-14.19 9.56-15 0-4.68-54.9-57.04-27.81-79.82-2.32-28.48 31.87-46.66 85.93-30.36 127.58 21.4 54.68 66.52 2.64 82.47-25.62 16.78-29.71 29.32-65.14 27.71-99.64-0.45-9.65 14.55-9.63 15 0" fill="#45284f"/><path d="m1712.8 3602.4c-0.53 46.81-55.66 128.48-95.5 114.17-30.83-11.07-32.48-69.52-5.79-109.14 32.75-48.62 101.57-64.74 101.29-5.44v0.41" fill="#e34e90"/><path d="m1596.5 3691.1c67.33-6.04 87.85-58.08 82.82-119.55-1.05-12.82 18.96-12.76 20 0 6.06 74.05-24.32 132.51-102.82 139.55-12.81 1.15-12.74-18.86 0-20" fill="#fff"/><path d="m1720.3 3603c-1.9 41.87-29.02 90.91-64.62 113.6-34.17 21.77-65.85 0.64-69.92-37.67-4.99-47.17 23.75-96.86 67.36-115.63 34.1-14.68 67.5-0.24 67.18 39.7-0.08 9.65-15.08 9.67-15 0 0.33-40.57-38.85-33.62-62.52-16.67-29.14 20.86-48.05 60.04-41.49 96.01 7.69 42.2 43.49 28.39 64.33 5.91 20.8-22.43 38.27-54.21 39.68-85.25 0.43-9.61 15.44-9.67 15 0" fill="#45284f"/><path d="m1639.4 3661.9c-8.86 39.97-65.98 109.57-94.03 97.27-21.71-9.52-12.43-59.42 15.24-93.19 33.96-41.43 89.78-55.05 78.86-4.42l-0.07 0.34" fill="#e34e90"/><path d="m1552.4 3729.9c32.64-22.25 60.89-53.81 57.19-95.71-1.13-12.81 18.87-12.73 20 0 4.33 49.05-28.92 86.96-67.09 112.98-10.66 7.26-20.68-10.06-10.1-17.27" fill="#fff"/><path d="m1646.6 3664.6c-9.06 36.16-36.9 74.51-68.12 94.84-28.14 18.32-54.69 4.78-52.41-29.97 2.8-42.47 34.63-86.31 73.97-102.42 30.79-12.61 53.9 3.98 46.56 37.55-2.06 9.42-16.53 5.44-14.47-3.99 8.73-39.93-35.82-17.25-51.18-4.09-21.03 18.04-44.95 53.11-39.79 82.69 5.69 32.63 40.37 0 51.46-11.9 17.32-18.6 33.27-41.77 39.51-66.7 2.35-9.35 16.82-5.39 14.47 3.99" fill="#45284f"/><path d="m1570.8 3737.4c-14.16 31.46-73.91 76.97-95.46 60.46-16.68-12.79-0.51-52.46 28.45-74.55 35.54-27.11 84.81-26.09 67.14 13.82l-0.13 0.27" fill="#e34e90"/><path d="m1466.8 3785.6c30.44-13.31 63.95-40.02 67.81-75.33 1.38-12.65 21.4-12.8 20 0-4.66 42.7-39.87 76.06-77.72 92.6-11.67 5.1-21.87-12.12-10.09-17.27" fill="#fff"/><path d="m1577.3 3741.9c-14 28.54-45.54 56.16-76.15 65.33-28.78 8.61-45.84-12.47-37.42-40.19 10.44-34.35 44.48-63.53 80.03-68.36 29.18-3.96 45.83 15.69 33.54 43.22-3.93 8.8-16.86 1.18-12.95-7.57 13.95-31.23-29.55-19.69-43.51-12.36-19.77 10.39-44.53 34.77-44.67 59.04-0.15 26.83 35.06 6.25 45.91-1.15 16.92-11.55 33.15-26.95 42.27-45.53 4.25-8.67 17.19-1.07 12.95 7.57" fill="#45284f"/><path d="m3248.5 1158c18.96-60.27 41.34-153.38-2.84-208.23-69.49-86.27-170.58 4.031-220.96 59.999-70.38 78.21-151.19 150.42-239.69 207.77-97.77 63.36-258.5 121.42-300.94 238.77-28.82 79.65-4.75 178.22 65.92 228.15 27.52 19.45 62.09 26.41 95.77 27.65 271.09 10.03 491.11-287.91 586.76-510.6 5.24-12.18 10.8-27.05 15.98-43.51" fill="#fcf6fb"/><path d="m3188.1 1185.3c-17.53-9.59-22.26-32.15-25.14-51.91 1.73 11.89-33.33 11.86-38.9 10.45-13.41-3.42-30.73-12.96-38.44-24.89-3.95-6.08-12.13-37.02 1.27-39.4-9.16 1.63-16.54 8.93-25.7 10.53-7.76 1.35-15.69-1.62-22.35-5.83-25.09-15.86-24.75-43.86-13.52-72.74l1.62-1.75c50.37-55.968 151.48-146.27 220.97-59.999 44.17 54.849 21.8 147.96 2.83 208.23-1.49 4.74-3.02 9.31-4.56 13.77-14.56 17.59-33.58 26.94-58.08 13.54" fill="#e34e90"/><path d="m3178 914.14h-0.23 0.87 0.23-0.87" fill="#7388cd"/><path d="m3177.8 914.14c-56.88 0.148-117.25 56.359-152.62 95.659-70.39 78.21-151.19 150.42-239.69 207.77-97.77 63.36-258.5 121.42-300.94 238.77l55.64 18.1c58.48-94.42 196.31-146.87 283.78-203.54 79.68-51.63 153.13-115.32 218.34-184.59-1.19-0.63-2.36-1.31-3.49-2.02-25.09-15.86-24.75-43.86-13.52-72.74l1.62-1.75c35.19-39.089 95.13-94.941 151.75-95.659h-0.87" fill="#efcae8"/><path d="m3178.9 914.14h-0.23c-56.62 0.718-116.56 56.57-151.75 95.659l-1.62 1.75c-11.23 28.88-11.57 56.88 13.52 72.74 1.13 0.71 2.3 1.39 3.49 2.02 7.22-7.66 14.33-15.39 21.34-23.18 35.41-39.35 95.9-95.65 152.84-95.65 16.36 0 32.43 4.649 47.53 15.68-4.04-12.09-9.83-23.359-17.88-33.359-20.39-25.313-43.49-35.422-67.24-35.66" fill="#d53f83"/><path d="m1887.9 3179c-14.44-9.88-32.63-13.63-50.02-11.77-16.77 1.78-31.83 6.79-48.79 4.42-16.29-2.28-30.88-11.7-43.25-22.06-15.56-13.03-29.42-28.49-47.28-38.16-16.36-8.88-35.61-12.35-54.04-9.75-13.37 1.87-26.1 6.8-38.56 11.98-10.42 4.33-20.75 8.87-31.08 13.4 42.67 9.29 85.54 25.3 116.2 56.39 20.76 21.05 35.36 48.43 59.71 65.19 24.99 17.22 56.73 20.81 87.06 21.88 12.58 0.45 25.17 0.55 37.75 0.31 13.07-0.26 27.67-1.58 36.26-11.42 19.21-22-4.27-66.95-23.96-80.41" fill="#fcda77"/><path d="m1884.2 3185.4c-45.05-24.62-90.92 7.17-135.52-24.5-18.56-13.18-33.25-32.92-53.82-43.07-40.43-19.94-78.79-0.68-116.11 15.64-0.6-4.57-1.2-9.14-1.79-13.71 56.65 13.52 101.35 35.59 138.8 80.85 29.9 36.13 58.45 57.25 106.93 61.54 13.61 1.21 30.41 4.14 43.56 1.16 45.13-10.24 44.49-54.97 16.43-79.08-7.34-6.3 3.32-16.87 10.61-10.61 19.7 16.93 41.83 50.94 31.17 78.49-11.86 30.69-50.49 26.67-77.09 26.04-40.76-0.95-81.53-5.48-113.24-33.46-18.55-16.37-30.7-38.72-48.27-56-31.07-30.58-71.46-44.58-112.89-54.47-5.84-1.39-7.82-11.07-1.79-13.7 46.01-20.12 90.6-40.55 137.61-11.54 11.46 7.07 20.72 16.55 31 25.14 29.78 24.91 58.03 23.69 96.17 25.81 21.03 1.16 36.42 1.92 55.81 12.52 8.47 4.63 0.91 17.59-7.57 12.95" fill="#45284f"/><path d="m1884.4 3225.8c-35.24-16.4-65.37 17.2-101.25 10.22-14.39-2.8-26.54-12.26-37.17-22.35-17.7-16.79-32.84-36.08-49.94-53.49-17.09-17.41-36.72-33.23-59.93-40.77-23.2-7.54-50.56-5.58-69.51 9.78 20.72 0.57 41.16 8.55 56.79 22.18 21.99 19.17 33.23 47.46 48.31 72.43 11.71 19.42 26.01 37.14 40.94 54.2 5.65 6.46 11.42 12.85 18.02 18.34 7.69 6.39 16.41 11.46 25.45 15.75 19.01 8.99 39.62 14.59 60.57 16.44 31.36 2.76 65-3.74 88.37-24.85 11.24-10.15 19.7-25 12.73-39.57-7.72-16.16-16.47-30.44-33.38-38.31" fill="#c99dd4"/><path d="m1882.4 3233c-47.59-14.58-83.56 28.44-129.04-3.23-54.38-37.85-100.51-145.45-182.97-94.13-1.26-4.66-2.53-9.32-3.79-13.98 59.16 6.86 79.79 44.07 107.93 91.98 23.23 39.54 53.73 80.59 98.11 97.29 18.92 7.12 39.58 11.15 59.85 10.65 20.12 0.04 38.89-4.97 56.29-15.05 27.16-32.13 24.44-56.9-8.17-74.28-8.17-5.11-0.65-18.09 7.57-12.96 84.08 52.49 8.34 119.4-63.59 117-42.43-1.42-83.6-17.32-112.93-48.24-46.48-49.04-70.19-142.7-145.06-151.39-7.1-0.82-10.56-9.76-3.78-13.97 44.79-27.88 91-10.83 127.96 21.95 39.67 35.2 64.69 91.47 128.89 79.63 25.44-4.7 40.74-13.69 66.72-5.74 9.21 2.83 5.28 17.31-3.99 14.47" fill="#45284f"/><path d="m1840.2 3360.3c-18.05 1.01-36.54-1.98-53.21-8.11-51.68-19.03-92.08-62.51-119.8-108.87-14.46-24.17-25.04-50.72-41.95-73.25-16.9-22.53-42.39-41.25-70.54-40.3 17.39-10.21 40.1-10.68 57.91-1.2 11.98 6.37 21.37 16.61 30.26 26.86 20.41 23.56 39.07 48.4 57.17 73.76 17.42 24.42 38.35 49.44 66.17 62.26 26.81 12.36 64.37 8.49 91.43-1.75 10.21-3.86 20.08-9.08 30.89-10.62 10.82-1.55 23.27 1.58 28.91 10.93 5.09 8.44 4 15.41 0.16 24.49-12.43 29.29-47.64 44.15-77.4 45.8" fill="#8387cc"/><g fill="#45284f"><path d="m1840.2 3367.8c-55.02-0.89-100.6-25.55-137.95-65.28-46.63-49.59-70.91-159.21-147.55-165.25-8.81-0.69-9.72-11.48-1.99-14.73 55.4-23.26 87.09 15.72 119.19 56.43 20.88 26.47 38.5 56.7 62.63 80.4 47.76 46.91 88.44 27.27 144.18 14.7 23.05-5.2 49.73 1.31 49.39 29.94-0.49 41.76-55.64 60.02-87.9 63.79-9.57 1.12-9.48-13.89 0-15 17.01-1.05 32.77-6.04 47.3-14.97 5.2-42.79-4.08-56.41-27.87-40.9-10.63 1.67-20.91 6.46-31.76 8.02-27.77 4-54.78 0.66-78.8-14.39-60.38-37.86-107.86-189.05-192.38-153.55-0.66-4.92-1.32-9.82-1.99-14.74 49.57 3.91 76.45 38.73 98.87 80.05 40.4 74.42 92.91 148.96 186.63 150.48 9.65 0.16 9.68 15.16 0 15"/><path d="m2764.6 2967.7c104.03 105.05 262.3 156.93 400.91 198.47 69.17 20.73 140.72 39 212.22 49.46 71.67 10.49 285.05 18.4 209.71-113.61-38.12-66.81-129.55-74.21-194.6-100.89-57.78-23.69-111.35-56.02-162.63-91.42-109.58-75.67-208.49-170.97-326.99-232.67-8.56-4.47-0.98-17.42 7.57-12.96 151.29 78.79 269.7 208.67 419.68 290.62 43.9 23.99 89.56 41.36 137.12 56.43 31.23 9.9 63.55 19.7 90.89 38.39 37.31 25.52 69.79 76.69 56.84 123.51-16.14 58.32-99.41 63.22-148.92 64.13-84.72 1.55-169.59-20.28-250.93-41.44-156.89-40.81-344.7-99.5-461.48-217.42-6.8-6.86 3.8-17.47 10.61-10.6"/><path d="m1967.2 2406.6c88.53 71.57 183.38 133.84 266.73 212.01 50.4 47.26 162.75 148.59 117.44 229.26-35.51 63.22-118.86 45.58-175.14 27.68-104.1-33.12-197.75-94.12-286.07-156.99-64.79-46.12-144.63-94.33-177.1-170.64-29.27-68.77-19.38-144.59 40.7-191.51 96.45-75.33 228.98-33.44 338.12-14.22 9.49 1.67 5.47 16.12-3.99 14.46-97.85-17.24-211.67-54.03-303.88-2.72-62.9 35-83.32 101.38-63.75 169.3 24.07 83.54 110.89 134.99 177.47 182.38 74.22 52.82 151.39 103.33 235.92 138.15 57.21 23.56 200.4 72.17 212.03-26.34 10.06-85.15-105.31-174.67-160.99-222.95-72.95-63.27-153.15-116.68-228.09-177.26-7.51-6.07 3.16-16.62 10.6-10.61"/><path d="m2100.3 3055.9c6.78-39.33 40.36-61.58 79.47-55.54 43.62 6.72 75.03 41.24 82.22 83.91 1.59 9.44-12.86 13.5-14.47 3.98-5.36-31.79-24.27-58.77-55.65-69.53-35.11-12.04-70.45 2.58-77.1 41.17-1.64 9.5-16.1 5.47-14.47-3.99"/><path d="m2135.6 3014.1c-5.2-12.7-10.4-25.39-15.61-38.09-3.66-8.93 10.85-12.81 14.46-3.99 5.21 12.7 10.41 25.4 15.62 38.09 3.66 8.93-10.85 12.81-14.47 3.99"/><path d="m2178.9 3004.7 4.26-29.79c0.58-4.04 5.66-6.17 9.22-5.24 4.33 1.14 5.81 5.24 5.24 9.23-1.42 9.93-2.84 19.86-4.25 29.79-0.59 4.04-5.67 6.17-9.23 5.24-4.32-1.14-5.81-5.24-5.24-9.23"/><path d="m2220 3027.1c5.87-10.67 11.74-21.33 17.61-32 4.65-8.46 17.61-0.91 12.95 7.57-5.87 10.66-11.74 21.33-17.61 32-4.65 8.46-17.61 0.9-12.95-7.57"/><path d="m1865.4 3000.2c5.56-32.29 33.41-50.51 65.43-45.5 35.35 5.54 60.99 33.54 66.83 68.19 1.59 9.44-12.86 13.5-14.47 3.99-4.2-24.93-18.85-46.1-43.48-54.59-27.38-9.43-54.67 1.83-59.85 31.89-1.64 9.5-16.1 5.47-14.46-3.98"/><path d="m1893.6 2967.6c-4.16-10.16-8.32-20.31-12.49-30.48-3.65-8.92 10.85-12.81 14.47-3.99 4.16 10.17 8.33 20.33 12.49 30.48 3.66 8.93-10.85 12.82-14.47 3.99"/><path d="m1928.3 2959.2c1.13-7.94 2.27-15.89 3.41-23.83 0.57-4 5.67-6.24 9.22-5.24 4.31 1.21 5.82 5.18 5.24 9.22-1.13 7.95-2.27 15.9-3.41 23.84-0.57 4.01-5.67 6.23-9.22 5.24-4.31-1.2-5.82-5.18-5.24-9.23"/><path d="m1961.4 2976.8c4.69-8.54 9.39-17.07 14.08-25.61 4.66-8.46 17.62-0.9 12.96 7.57-4.7 8.53-9.39 17.07-14.09 25.61-4.65 8.46-17.61 0.9-12.95-7.57"/><path d="m2875.6 1638.6c129.48-82.06 227.58-206.8 300.92-339.86 33.65-61.04 63.28-124.61 78.51-192.94 17.5-78.55 0.67-223.41-118.32-174.51-64.47 26.481-107.46 87.099-155.15 134.98-54.51 54.73-113.92 105.03-178.09 148.1-105.67 70.9-260.9 116.25-312.18 243.97-3.56 8.85-18.07 4.99-14.46-3.98 42.23-105.22 152.1-156.62 245.36-208.54 65.96-36.73 127.21-79.88 184.15-129.61 55.39-48.37 100.93-106.96 156.54-154.68 68.52-58.782 179-85.711 210.03 27.101 30.01 109.13-38.61 238.83-90.67 330.62-73.85 130.19-171.62 251.52-299.07 332.31-8.18 5.18-15.71-7.79-7.57-12.96"/><path d="m2218.1 2464.2c-0.72-2.84-4.21-16.1-9.08-15.92-5.58 0.21-3.99 14.37-3.27 17.77 0.85 4.01 3.62 14.7 8.38 15.6 6.39 1.22 4.63-13.75 3.97-17.45-1.7-9.43 12.75-13.49 14.46-3.99 2.22 12.37 2.05 34.04-14.3 36.78-14.93 2.51-24.28-14.81-26.97-26.94-2.68-12.08-1.87-32.97 13.3-36.65 15.55-3.77 24.91 14.74 27.97 26.81 2.38 9.36-12.08 13.35-14.46 3.99"/><path d="m2036.8 2406.1c7.69-9.47 22.79-20.91 35.23-12.72 13.64 8.98 5.36 29.35-2.26 39.27-7.41 9.66-22.58 21.5-35.22 13.85-14.12-8.53-6.26-28.7 1.08-38.88 5.59-7.76 18.61-0.28 12.95 7.58-1.73 2.39-10.65 15.49-6.34 18.5 4.34 3.03 13.78-7.67 15.74-10.25 1.8-2.37 9.71-14.45 5.77-17.64-4.23-3.43-14.46 8.58-16.34 10.9-6.09 7.5-16.64-3.17-10.61-10.61"/></g><path d="m2128.8 3560.9c2.34 35.14 4.76 70.71 15.72 104.17 10.96 33.47 31.57 65.15 62.41 82.15 5.77 3.18 12.16 5.88 18.73 5.36 5.47-0.44 10.52-3.07 15.11-6.08 21.51-14.16 35.62-37.16 45.99-60.73 14.07-31.96 22.6-67.02 19.44-101.79s-18.96-69.19-46.63-90.49" fill="#fcf6fb"/><path d="m2136.3 3560.9c3.16 45.69 37.78 248.79 120.36 159.69 54.98-59.33 58.97-167.25-2.39-221.8-7.23-6.43 3.41-17.01 10.61-10.61 37.81 33.62 53.72 80.27 48.3 130.54-4.8 44.58-26.1 109.45-67.87 133.67-30.81 17.86-58.47-5.52-78.33-29.56-37.27-45.11-41.82-106.04-45.68-161.93-0.66-9.64 14.34-9.59 15 0" fill="#45284f"/><path d="m2174.9 3562.5c-1.6-11.18-1.3-22.53-0.98-33.82 0.06-2.22 0.12-4.47 0.79-6.59 0.95-3 3.05-5.51 5.32-7.72 7.79-7.58 18.17-12.46 28.98-13.62 1.92-0.2 3.9-0.29 5.75 0.25 2.36 0.71 4.31 2.39 6.03 4.16 6.88 7.08 11.35 16.25 13.85 25.8 2.51 9.55 3.13 19.5 3.08 29.37-0.08 12.52-1.29 25.24-6.02 36.83-4.35 10.68-15.21 26.47-28.09 27.57-6.4 0.55-8.73-8.12-11.12-12.77-3.75-7.31-7.28-14.74-10.24-22.41-3.38-8.73-6.02-17.77-7.35-27.05" fill="#f680a3"/><path d="m2226.8 3502.6c19.29 36.62 38.87 114.85-19.14 128.62-9.39 2.22-13.39-12.24-3.99-14.47 24.35-5.78 30.26-37.9 27.77-59.11-2.01-17-9.7-32.48-17.6-47.47-4.49-8.53 8.45-16.12 12.96-7.57" fill="#45284f"/><path d="m2180.3 3528.9c-3.9 56.81 23.4 109.57 72.43 138.7 8.3 4.92 0.76 17.9-7.57 12.95-53.34-31.69-84.12-89.65-79.86-151.65 0.66-9.58 15.66-9.65 15 0" fill="#45284f"/><g fill="#fff"><path d="m3293.5 3468.2c-49.69 49.69-90.35 49.69-140.03 0 49.68 49.69 49.68 90.34 0 140.03 49.68-49.69 90.34-49.69 140.03 0-49.69-49.69-49.69-90.34 0-140.03"/><path d="m3866.9 2210c-46.72 46.73-84.96 46.73-131.69 0 46.73 46.73 46.73 84.96 0 131.69 46.73-46.73 84.97-46.73 131.69 0-46.72-46.73-46.72-84.96 0-131.69"/><path d="m3287.6 2455.9c-47.14 47.13-85.71 47.13-132.84 0 47.13 47.13 47.13 85.7 0 132.84 47.13-47.14 85.7-47.14 132.84 0-47.14-47.14-47.14-85.71 0-132.84"/><path d="m1298.7 1902.2c-47.14 47.13-85.71 47.13-132.85 0 47.14 47.13 47.14 85.7 0 132.84 47.14-47.14 85.71-47.14 132.85 0-47.14-47.14-47.14-85.71 0-132.84"/><path d="m1487.3 2552c-47.14 47.14-85.7 47.14-132.84 0 47.14 47.14 47.14 85.7 0 132.84 47.14-47.14 85.7-47.14 132.84 0-47.14-47.14-47.14-85.7 0-132.84"/><path d="m1975.6 4050.7c-47.14 47.14-85.71 47.14-132.85 0 47.14 47.14 47.14 85.7 0 132.84 47.14-47.14 85.71-47.14 132.85 0-47.14-47.14-47.14-85.7 0-132.84"/><path d="m4060.3 3243.5c-47.14 47.14-85.7 47.14-132.84 0 47.14 47.14 47.14 85.7 0 132.84 47.14-47.14 85.7-47.14 132.84 0-47.14-47.14-47.14-85.7 0-132.84"/><path d="m3910 1280.7c-47.14 47.14-85.7 47.14-132.84 0 47.14 47.14 47.14 85.71 0 132.85 47.14-47.14 85.7-47.14 132.84 0-47.14-47.14-47.14-85.71 0-132.85"/><path d="m2654.9 3835.5c-29.23 29.25-53.17 29.25-82.41 0 29.24 29.25 29.24 53.18 0 82.42 29.24-29.24 53.18-29.24 82.41 0-29.23-29.24-29.23-53.17 0-82.42"/><path d="m1801.7 1998.7c-29.24 29.25-53.18 29.25-82.42 0 29.24 29.25 29.24 53.18 0 82.42 29.24-29.24 53.18-29.24 82.42 0-29.24-29.24-29.24-53.17 0-82.42"/><path d="m1419.2 3441.5c-29.24 29.25-53.17 29.25-82.41 0 29.24 29.25 29.24 53.18 0 82.42 29.24-29.24 53.17-29.24 82.41 0-29.24-29.24-29.24-53.17 0-82.42"/></g><path d="m1246.4 2901.3-55.2 9.25c-2.95 0.49-5.95-0.5-8.03-2.64l-38.91-40.24c-5.23-5.4-14.39-2.47-15.5 4.97l-8.26 55.36c-0.44 2.95-2.31 5.5-4.99 6.81l-50.3 24.58c-6.75 3.3-6.79 12.92-0.06 16.27l50.1 24.97c2.67 1.33 4.52 3.9 4.94 6.85l7.83 55.43c1.06 7.44 10.19 10.45 15.46 5.08l39.22-39.93c2.1-2.13 5.1-3.09 8.05-2.58l55.13 9.68c7.41 1.3 13.09-6.45 9.62-13.12l-25.86-49.65c-1.38-2.65-1.37-5.81 0.03-8.44l26.24-49.45c3.53-6.64-2.09-14.45-9.51-13.2" fill="#fcd4e0"/><path d="m1246.4 2901.3 0.83 4.93-55.21 9.25-2.33 0.19c-3.78 0-7.44-1.52-10.11-4.29l-38.92-40.23c-0.9-0.92-1.83-1.24-2.88-1.25-0.95-0.01-1.94 0.34-2.66 0.94-0.73 0.61-1.23 1.37-1.42 2.54l-8.26 55.36c-0.68 4.58-3.57 8.53-7.74 10.57l-50.29 24.57c-1.59 0.8-2.24 2.11-2.28 3.66 0.04 1.54 0.68 2.84 2.25 3.65l50.1 24.96 0.01 0.01c4.14 2.07 7 6.04 7.65 10.62l7.83 55.43c0.18 1.17 0.68 1.94 1.41 2.55s1.72 0.96 2.68 0.96c1.03-0.02 1.95-0.33 2.85-1.23l39.23-39.93v-0.01c2.67-2.71 6.3-4.2 10.04-4.2l2.42 0.21 0.05 0.01 55.09 9.67 0.77 0.07c1.13-0.01 2.08-0.45 2.84-1.23 0.76-0.77 1.2-1.83 1.19-2.85l-0.48-1.89-25.86-49.64c-1.06-2.04-1.59-4.27-1.59-6.5 0-2.27 0.55-4.54 1.65-6.6l26.24-49.45 0.49-1.91c0.01-1.02-0.43-2.08-1.19-2.85s-1.7-1.22-2.83-1.22l-0.75 0.06h0.01l-0.83-4.93-0.82-4.93 2.39-0.2c8.02 0.06 14.01 6.58 14.02 14.07 0.01 2.21-0.54 4.49-1.66 6.6l-26.24 49.45-0.48 1.91 0.46 1.88 25.86 49.65c1.09 2.08 1.62 4.33 1.61 6.5-0.02 7.51-6.01 14.01-14.03 14.08l-2.5-0.22-55.13-9.68h0.01l-0.71-0.06c-1.09 0-2.14 0.43-2.91 1.22l-39.23 39.93c-2.77 2.84-6.47 4.24-9.98 4.22-3.29-0.01-6.47-1.13-9.02-3.22-2.56-2.08-4.46-5.22-4.97-8.89l-7.83-55.43c-0.19-1.32-1.02-2.48-2.22-3.08v0.01l-50.1-24.97c-5.13-2.54-7.84-7.68-7.79-12.6-0.05-4.95 2.7-10.13 7.89-12.64l50.29-24.58c1.21-0.59 2.05-1.73 2.24-3.05l8.26-55.37c0.54-3.65 2.45-6.76 5-8.82 2.55-2.07 5.71-3.18 8.97-3.18 3.55-0.02 7.29 1.4 10.07 4.29l38.99 40.32-0.07-0.08c0.77 0.8 1.83 1.24 2.92 1.24l0.68-0.05 55.21-9.25 0.82 4.93" fill="#fff"/><path d="m3767.1 2648-36.51 42.43c-1.95 2.26-4.89 3.42-7.86 3.1l-55.65-6.03c-7.47-0.81-12.63 7.3-8.73 13.74l29.07 47.83c1.55 2.55 1.75 5.71 0.52 8.43l-22.93 51.06c-3.08 6.86 3.05 14.28 10.36 12.55l54.48-12.86c2.91-0.69 5.97 0.1 8.18 2.11l41.48 37.58c5.57 5.05 14.51 1.52 15.14-5.97l4.6-55.79c0.24-2.98 1.94-5.64 4.53-7.13l48.56-27.83c6.53-3.74 5.93-13.34-1-16.24l-51.64-21.62c-2.76-1.15-4.77-3.58-5.37-6.51l-11.47-54.79c-1.54-7.36-10.85-9.76-15.76-4.06" fill="#fcd4e0"/><path d="m3767.1 2648 3.79 3.26-36.51 42.43c-2.69 3.12-6.59 4.89-10.67 4.89l-1.53-0.08-55.64-6.03-0.49-0.03c-1.18 0.01-2.1 0.46-2.86 1.23-0.74 0.77-1.18 1.85-1.18 2.87l0.61 2.1 29.07 47.84c1.36 2.22 2.05 4.76 2.05 7.3 0 1.96-0.41 3.93-1.24 5.78l-22.93 51.05-0.37 1.69c-0.01 1.03 0.43 2.07 1.19 2.85 0.77 0.77 1.74 1.21 2.83 1.21l1-0.12 54.48-12.86c1.08-0.25 2.16-0.37 3.24-0.37 3.45 0 6.83 1.27 9.45 3.65l41.48 37.58c0.88 0.78 1.74 1.05 2.68 1.07 0.99 0 2.02-0.39 2.77-1.04 0.75-0.67 1.23-1.49 1.35-2.72l0.02-0.29 4.57-55.49c0.39-4.62 3.02-8.75 7.03-11.05l48.57-27.84c1.44-0.85 2.01-2.07 2.04-3.52-0.04-1.63-0.78-3.03-2.49-3.77l-51.64-21.62c-4.27-1.78-7.4-5.56-8.34-10.11v0.01l-11.46-54.79c-0.45-2.1-2.14-3.19-4.04-3.24-1.14 0.02-2.13 0.39-3.04 1.42l-3.79-3.26-3.79-3.27c2.82-3.29 6.82-4.91 10.62-4.89 6.16-0.05 12.35 4.17 13.82 11.19l11.47 54.8v0.01c0.27 1.3 1.17 2.39 2.41 2.91l51.64 21.62c5.63 2.34 8.68 7.77 8.63 12.99 0.04 4.65-2.38 9.53-7.07 12.2l-48.57 27.83c-1.16 0.67-1.92 1.87-2.03 3.2l-4.6 55.79c-0.31 3.85-2.16 7.21-4.75 9.44-2.59 2.24-5.89 3.48-9.33 3.49-3.26 0.01-6.69-1.19-9.4-3.66l-41.48-37.59c-0.76-0.69-1.73-1.05-2.73-1.05l-0.94 0.1-54.48 12.86c-1.1 0.27-2.21 0.39-3.3 0.39-7.91-0.06-13.99-6.46-14.02-14.06-0.01-1.92 0.4-3.9 1.25-5.78l22.93-51.07v-0.01l0.36-1.66-0.59-2.11-29.07-47.84c-1.4-2.29-2.07-4.84-2.07-7.29 0.01-3.73 1.49-7.2 3.97-9.79 2.46-2.59 6.06-4.31 10.07-4.31l1.56 0.09 55.66 6.03 0.44 0.02c1.18 0 2.31-0.51 3.08-1.41l36.52-42.43 3.79 3.26" fill="#fff"/><path d="m1482.2 1516.4-55.52-7.12c-2.96-0.38-5.55-2.2-6.91-4.86l-25.61-49.77c-3.44-6.68-13.06-6.53-16.27 0.27l-23.93 50.61c-1.27 2.7-3.8 4.6-6.75 5.07l-55.25 8.98c-7.42 1.21-10.24 10.4-4.77 15.56l40.73 38.39c2.18 2.06 3.2 5.04 2.75 7.99l-8.54 55.32c-1.14 7.44 6.73 12.95 13.32 9.34l49.11-26.87c2.62-1.43 5.78-1.49 8.44-0.14l49.98 25.21c6.71 3.39 14.39-2.39 13-9.78l-10.39-55.01c-0.55-2.93 0.37-5.95 2.48-8.07l39.42-39.74c5.3-5.34 2.17-14.43-5.29-15.38" fill="#fcd4e0"/><g fill="#fff"><path d="m1482.2 1516.4-0.63 4.96-55.52-7.12c-4.6-0.6-8.61-3.41-10.73-7.54l-25.61-49.76c-0.82-1.55-2.1-2.17-3.62-2.21-1.56 0.04-2.9 0.71-3.69 2.33l-23.92 50.6c-1.98 4.2-5.9 7.14-10.47 7.88l-55.25 8.97c-1.15 0.2-1.9 0.71-2.5 1.43-0.59 0.72-0.93 1.7-0.93 2.65 0.02 1.06 0.35 2 1.29 2.91l40.73 38.4h0.01c2.84 2.68 4.41 6.4 4.41 10.24l-0.16 2.14-8.53 55.33-0.06 0.68c0.01 1.15 0.45 2.08 1.22 2.84 0.77 0.75 1.83 1.19 2.86 1.19l1.95-0.52 49.11-26.88h0.01c2.1-1.15 4.42-1.72 6.75-1.72 2.16 0 4.34 0.5 6.34 1.51l49.97 25.21 1.84 0.46c1.03 0 2.08-0.44 2.86-1.19 0.77-0.77 1.21-1.72 1.22-2.85l-0.08-0.82-10.39-55-0.25-2.61c0-3.67 1.45-7.25 4.09-9.91l39.42-39.74v-0.01c0.87-0.89 1.18-1.8 1.19-2.81 0.01-0.96-0.35-1.96-0.97-2.69-0.63-0.74-1.4-1.23-2.6-1.39l1.28-9.92c3.71 0.46 6.9 2.35 9.01 4.91 2.13 2.57 3.28 5.77 3.28 9.09 0.02 3.46-1.33 7.1-4.09 9.86l-39.42 39.74c-0.77 0.77-1.19 1.81-1.19 2.87l0.07 0.75 10.39 55.01 0.26 2.67c-0.07 8-6.55 14.01-14.08 14.04-2.11 0-4.3-0.5-6.35-1.53l-49.97-25.22-1.83-0.43-1.97 0.5 0.01-0.01-49.11 26.88h0.01c-2.16 1.18-4.5 1.75-6.76 1.75-7.47-0.01-14.02-5.98-14.08-14.03l0.17-2.21 8.54-55.32 0.04-0.62c0-1.11-0.45-2.19-1.28-2.97l-40.73-38.4v0.01c-2.98-2.8-4.45-6.59-4.43-10.19 0.01-3.23 1.1-6.37 3.13-8.91 2.02-2.54 5.09-4.46 8.69-5.04l55.26-8.97c1.33-0.22 2.46-1.06 3.03-2.27l23.93-50.62c2.48-5.28 7.71-8.09 12.72-8.05 4.86-0.04 9.94 2.6 12.51 7.63l25.62 49.78c0.61 1.19 1.77 2.01 3.1 2.18l55.52 7.12-0.64 4.96"/><path d="m992.59 3506v-58.9c0-12.87 20-12.89 20 0v58.9c0 12.87-20 12.89-20 0"/><path d="m895.78 3439.4c17-9.82 34.004-19.64 51.004-29.45 11.168-6.45 21.25 10.83 10.094 17.27-17.004 9.81-34.004 19.63-51.008 29.44-11.164 6.45-21.25-10.82-10.09-17.26"/><path d="m905.13 3322.4c17 9.82 34.008 19.63 51.012 29.45 11.14 6.43 1.082 23.72-10.098 17.27-17.004-9.82-34.004-19.63-51.008-29.45-11.144-6.43-1.086-23.72 10.094-17.27"/><path d="m1011.1 3271.8v58.89c0 12.87-20.003 12.89-20.003 0v-58.89c0-12.87 20.003-12.89 20.003 0"/><path d="m1107.9 3338.4c-17 9.81-34 19.63-51 29.45-11.17 6.44-21.25-10.83-10.1-17.27 17-9.82 34-19.64 51.01-29.45 11.16-6.45 21.25 10.83 10.09 17.27"/><path d="m1098.6 3455.4c-17-9.81-34-19.63-51-29.44-11.15-6.44-1.09-23.73 10.09-17.27 17 9.81 34.01 19.63 51.01 29.44 11.14 6.44 1.08 23.73-10.1 17.27"/><path d="m3682.3 3707.4v-58.9c0-12.87 20-12.89 20 0v58.9c0 12.87-20 12.89-20 0"/><path d="m3585.5 3640.9c17-9.81 34-19.62 51-29.44 11.17-6.45 21.25 10.83 10.09 17.27-17 9.81-34 19.63-51 29.44-11.17 6.45-21.25-10.83-10.09-17.27"/><path d="m3594.8 3523.8c17.01 9.81 34.01 19.63 51.01 29.45 11.14 6.43 1.08 23.72-10.1 17.27-17-9.82-34-19.64-51-29.45-11.15-6.44-1.09-23.73 10.09-17.27"/><path d="m3700.8 3473.2v58.9c0 12.87-20 12.89-20 0v-58.9c0-12.86 20-12.89 20 0"/><path d="m3797.6 3539.8c-17 9.81-34.01 19.63-51.01 29.44-11.17 6.45-21.25-10.82-10.1-17.26 17.01-9.82 34.01-19.64 51.01-29.46 11.16-6.44 21.25 10.83 10.1 17.28"/><path d="m3788.3 3656.9c-17-9.81-34-19.63-51-29.45-11.15-6.43-1.09-23.72 10.09-17.26 17.01 9.81 34.01 19.63 51.01 29.44 11.14 6.44 1.08 23.73-10.1 17.27"/><path d="m4171.9 1856.9c-13.87-13.88-27.76-27.76-41.64-41.65-9.12-9.11 5.02-23.25 14.14-14.14 13.88 13.89 27.77 27.77 41.65 41.65 9.12 9.12-5.02 23.27-14.15 14.14"/><path d="m4056.4 1878.2c5.08-18.96 10.16-37.93 15.24-56.89 3.33-12.42 22.63-7.15 19.29 5.31-5.08 18.97-10.17 37.93-15.25 56.9-3.33 12.42-22.62 7.14-19.28-5.32"/><path d="m3980.1 1788.9c18.96-5.09 37.93-10.17 56.89-15.25 12.44-3.34 17.76 15.95 5.31 19.28-18.96 5.09-37.91 10.16-56.88 15.24-12.45 3.34-17.76-15.94-5.32-19.27"/><path d="m4019.4 1678.2 41.65 41.65c9.12 9.11-5.02 23.27-14.14 14.14-13.88-13.87-27.76-27.76-41.65-41.65-9.11-9.11 5.03-23.25 14.14-14.14"/><path d="m4134.9 1656.9c-5.08 18.97-10.16 37.93-15.24 56.89-3.33 12.42-22.63 7.16-19.29-5.31 5.09-18.97 10.17-37.93 15.25-56.9 3.33-12.41 22.62-7.15 19.28 5.32"/><path d="m4211.2 1746.2c-18.96 5.08-37.93 10.16-56.89 15.25-12.45 3.33-17.76-15.96-5.32-19.29 18.97-5.08 37.93-10.17 56.9-15.25 12.44-3.34 17.75 15.95 5.31 19.29"/><path d="m1838.2 215.62c0-4.012 0.62-7.402 1.86-10.23 1.25-2.809 2.96-4.95 5.11-6.36 2.19-1.429 4.54-2.14 7.11-2.14 2.6 0 4.97 0.668 7.13 2.031 2.14 1.34 3.86 3.43 5.13 6.219 1.29 2.8 1.92 6.308 1.92 10.48 0 3.938-0.63 7.32-1.92 10.168-1.27 2.82-3.01 4.992-5.19 6.5-2.2 1.492-4.58 2.231-7.18 2.231-2.7 0-5.13-0.75-7.26-2.29-2.13-1.531-3.78-3.738-4.95-6.609-1.19-2.883-1.76-6.211-1.76-10zm29.07-21.699v1.437c-1.97-2.257-3.93-4.109-5.87-5.539-1.93-1.429-4.02-2.519-6.29-3.261-2.25-0.727-4.71-1.098-7.38-1.098-3.54 0-6.83 0.738-9.83 2.25-3.02 1.488-5.63 3.641-7.83 6.41-2.21 2.777-3.87 6.051-5.01 9.809-1.15 3.75-1.71 7.82-1.71 12.179 0 9.243 2.26 16.461 6.78 21.61 4.52 5.16 10.45 7.75 17.81 7.75 4.25 0 7.85-0.727 10.79-2.188 2.91-1.472 5.77-3.711 8.54-6.761v21.851c0 3.031 0.61 5.309 1.82 6.859 1.21 1.571 2.94 2.329 5.17 2.329 2.24 0 3.97-0.707 5.19-2.129 1.2-1.442 1.81-3.52 1.81-6.309v-65.199c0-2.84-0.64-4.953-1.95-6.352-1.3-1.41-2.99-2.109-5.05-2.109-2.02 0-3.68 0.719-5 2.199-1.33 1.461-1.99 3.539-1.99 6.262"/><path d="m1903.6 220.27h26.82c-0.37 5.062-1.73 8.859-4.09 11.359-2.38 2.5-5.49 3.769-9.35 3.769-3.68 0-6.71-1.277-9.07-3.816-2.38-2.543-3.8-6.32-4.31-11.312zm28.91-8.391h-28.91c0.04-3.34 0.71-6.309 2.03-8.867 1.31-2.571 3.08-4.492 5.25-5.793 2.19-1.321 4.61-1.949 7.23-1.949 1.78 0 3.4 0.199 4.85 0.609 1.47 0.422 2.89 1.062 4.26 1.953 1.37 0.879 2.64 1.84 3.79 2.848 1.16 1.011 2.65 2.39 4.49 4.121 0.77 0.648 1.85 0.969 3.26 0.969 1.52 0 2.73-0.418 3.68-1.25 0.93-0.84 1.41-2 1.41-3.508 0-1.34-0.53-2.903-1.57-4.692-1.05-1.789-2.64-3.511-4.75-5.148-2.12-1.641-4.76-3-7.96-4.09-3.18-1.07-6.87-1.621-11.01-1.621-9.51 0-16.9 2.711-22.16 8.129-5.27 5.398-7.91 12.762-7.91 22.031 0 4.367 0.64 8.43 1.95 12.16 1.3 3.739 3.19 6.949 5.69 9.617 2.49 2.672 5.56 4.723 9.2 6.153 3.65 1.429 7.7 2.121 12.14 2.121 5.77 0 10.73-1.192 14.85-3.641 4.15-2.441 7.25-5.582 9.3-9.449 2.07-3.863 3.1-7.801 3.1-11.812 0-3.719-1.07-6.122-3.21-7.231-2.12-1.09-5.12-1.66-9-1.66"/><path d="m1999.9 204.8c0-4.09-0.97-7.571-2.97-10.5-1.98-2.891-4.92-5.102-8.79-6.59-3.89-1.512-8.61-2.25-14.18-2.25-5.3 0-9.86 0.809-13.63 2.43-3.81 1.629-6.6 3.668-8.41 6.078-1.8 2.461-2.71 4.902-2.71 7.351 0 1.641 0.58 3.02 1.75 4.18 1.13 1.148 2.6 1.73 4.38 1.73 1.55 0 2.73-0.371 3.57-1.14 0.84-0.75 1.63-1.82 2.38-3.192 1.51-2.648 3.33-4.609 5.45-5.906 2.11-1.312 4.98-1.953 8.63-1.953 2.96 0 5.4 0.652 7.3 1.981 1.88 1.32 2.84 2.82 2.84 4.531 0 2.59-1 4.488-2.97 5.679-1.96 1.192-5.21 2.321-9.71 3.411-5.09 1.257-9.24 2.589-12.43 3.988-3.2 1.391-5.76 3.223-7.67 5.492-1.9 2.277-2.87 5.07-2.87 8.399 0 2.949 0.89 5.761 2.65 8.39 1.79 2.629 4.39 4.731 7.84 6.301 3.44 1.578 7.59 2.371 12.48 2.371 3.83 0 7.27-0.383 10.31-1.203 3.06-0.777 5.61-1.859 7.65-3.188 2.04-1.339 3.59-2.82 4.64-4.429 1.07-1.621 1.6-3.223 1.6-4.793 0-1.688-0.56-3.078-1.69-4.16-1.13-1.079-2.76-1.618-4.87-1.618-1.51 0-2.8 0.43-3.86 1.297-1.07 0.871-2.27 2.16-3.66 3.914-1.11 1.418-2.43 2.586-3.95 3.438-1.52 0.879-3.57 1.308-6.17 1.308-2.67 0-4.9-0.558-6.66-1.707-1.78-1.132-2.65-2.543-2.65-4.242 0-1.57 0.65-2.84 1.93-3.82 1.31-1 3.07-1.82 5.27-2.457 2.2-0.66 5.22-1.442 9.1-2.391 4.57-1.133 8.32-2.461 11.24-4 2.9-1.551 5.1-3.39 6.6-5.511 1.5-2.098 2.24-4.508 2.24-7.219"/><path d="m2022.3 237.19v-42.742c0-2.961-0.69-5.207-2.1-6.719-1.4-1.519-3.2-2.269-5.37-2.269-2.16 0-3.93 0.769-5.28 2.32-1.36 1.571-2.03 3.778-2.03 6.668v42.313c0 2.918 0.67 5.117 2.03 6.597 1.35 1.493 3.12 2.223 5.28 2.223 2.17 0 3.97-0.73 5.37-2.223 1.41-1.48 2.1-3.55 2.1-6.168zm-7.31 15.25c-2.05 0-3.82 0.649-5.27 1.918-1.47 1.262-2.2 3.032-2.2 5.36 0 2.101 0.76 3.82 2.25 5.172 1.5 1.359 3.24 2.031 5.22 2.031 1.92 0 3.61-0.621 5.11-1.84 1.47-1.242 2.2-3.023 2.2-5.363 0-2.278-0.72-4.071-2.16-5.348-1.44-1.269-3.16-1.93-5.15-1.93"/><path d="m2044.3 216.02c0-6 1.3-10.528 3.93-13.61 2.61-3.07 6-4.601 10.15-4.601 2.46 0 4.78 0.66 6.96 1.972 2.19 1.328 3.97 3.309 5.34 5.949 1.37 2.668 2.06 5.879 2.06 9.668 0 6.032-1.32 10.731-3.98 14.082-2.66 3.36-6.15 5.04-10.49 5.04-4.23 0-7.61-1.598-10.15-4.809-2.55-3.211-3.82-7.789-3.82-13.691zm42.84 18.73v-42.961c0-4.918-0.51-9.129-1.58-12.68-1.03-3.519-2.72-6.449-5.02-8.769-2.32-2.289-5.34-4.008-9.08-5.129-3.73-1.129-8.39-1.691-13.94-1.691-5.1 0-9.65 0.722-13.66 2.152-4 1.41-7.09 3.258-9.26 5.508-2.16 2.261-3.24 4.582-3.24 6.961 0 1.808 0.61 3.289 1.83 4.418 1.23 1.132 2.72 1.711 4.45 1.711 2.16 0 4.05-0.969 5.69-2.86 0.78-0.988 1.6-1.988 2.45-2.969 0.85-1 1.8-1.839 2.83-2.55 1.02-0.692 2.26-1.211 3.7-1.551 1.45-0.34 3.11-0.531 4.99-0.531 3.82 0 6.79 0.543 8.9 1.589 2.11 1.071 3.61 2.571 4.45 4.481 0.85 1.91 1.35 3.961 1.49 6.152 0.14 2.18 0.25 5.699 0.33 10.539-2.29-3.191-4.91-5.609-7.89-7.269-2.98-1.649-6.53-2.481-10.64-2.481-4.95 0-9.26 1.262-12.98 3.789-3.69 2.52-6.54 6.063-8.52 10.61-1.99 4.551-2.97 9.801-2.97 15.75 0 4.453 0.59 8.461 1.81 12.031 1.21 3.582 2.93 6.602 5.16 9.051 2.24 2.461 4.83 4.308 7.75 5.558 2.93 1.243 6.13 1.86 9.64 1.86 4.19 0 7.82-0.809 10.9-2.399 3.05-1.629 5.92-4.14 8.55-7.578v2.028c0 2.55 0.63 4.539 1.89 5.96 1.28 1.391 2.9 2.102 4.87 2.102 2.85 0 4.75-0.934 5.69-2.781 0.95-1.86 1.41-4.559 1.41-8.051"/><path d="m2110.6 237.4v-1.777c2.59 3.418 5.43 5.938 8.52 7.539 3.09 1.621 6.63 2.422 10.64 2.422 3.91 0 7.39-0.84 10.47-2.551 3.06-1.691 5.36-4.101 6.86-7.211 0.98-1.8 1.62-3.75 1.91-5.84 0.28-2.109 0.43-4.769 0.43-8.019v-27.512c0-2.961-0.68-5.207-2.04-6.719-1.35-1.519-3.1-2.269-5.27-2.269-2.21 0-4 0.769-5.37 2.32-1.38 1.571-2.06 3.778-2.06 6.668v24.641c0 4.871-0.68 8.621-2.02 11.18-1.35 2.582-4.06 3.871-8.11 3.871-2.63 0-5.03-0.77-7.19-2.34-2.17-1.582-3.77-3.742-4.77-6.492-0.73-2.188-1.08-6.309-1.08-12.34v-18.52c0-2.988-0.7-5.25-2.09-6.738-1.38-1.512-3.18-2.25-5.39-2.25-2.13 0-3.88 0.769-5.26 2.32-1.37 1.571-2.05 3.778-2.05 6.668v42.742c0 2.809 0.61 4.918 1.84 6.301 1.23 1.387 2.89 2.09 5.03 2.09 1.3 0 2.48-0.301 3.53-0.934 1.03-0.609 1.89-1.527 2.52-2.75 0.64-1.238 0.95-2.738 0.95-4.5"/><path d="m2171.6 220.27h26.8c-0.36 5.062-1.73 8.859-4.09 11.359s-5.47 3.769-9.34 3.769c-3.69 0-6.71-1.277-9.08-3.816-2.36-2.543-3.79-6.32-4.29-11.312zm28.91-8.391h-28.91c0.03-3.34 0.7-6.309 2.03-8.867 1.32-2.571 3.06-4.492 5.25-5.793 2.18-1.321 4.59-1.949 7.23-1.949 1.76 0 3.38 0.199 4.85 0.609 1.45 0.422 2.87 1.062 4.25 1.953 1.37 0.879 2.63 1.84 3.79 2.848 1.15 1.011 2.65 2.39 4.49 4.121 0.76 0.648 1.85 0.969 3.25 0.969 1.52 0 2.75-0.418 3.69-1.25 0.94-0.84 1.4-2 1.4-3.508 0-1.34-0.52-2.903-1.56-4.692s-2.63-3.511-4.76-5.148c-2.11-1.641-4.74-3-7.95-4.09-3.2-1.07-6.86-1.621-11.02-1.621-9.5 0-16.88 2.711-22.16 8.129-5.27 5.398-7.9 12.762-7.9 22.031 0 4.367 0.64 8.43 1.94 12.16 1.3 3.739 3.2 6.949 5.7 9.617 2.5 2.672 5.55 4.723 9.21 6.153 3.64 1.429 7.68 2.121 12.13 2.121 5.77 0 10.74-1.192 14.86-3.641 4.13-2.441 7.23-5.582 9.29-9.449 2.05-3.863 3.09-7.801 3.09-11.812 0-3.719-1.07-6.122-3.19-7.231-2.14-1.09-5.13-1.66-9-1.66"/><path d="m2231.8 215.62c0-4.012 0.62-7.402 1.87-10.23 1.23-2.809 2.95-4.95 5.12-6.36 2.16-1.429 4.52-2.14 7.09-2.14 2.6 0 4.97 0.668 7.11 2.031 2.16 1.34 3.88 3.43 5.15 6.219 1.28 2.8 1.92 6.308 1.92 10.48 0 3.938-0.64 7.32-1.92 10.168-1.27 2.82-3.01 4.992-5.19 6.5-2.2 1.492-4.58 2.231-7.18 2.231-2.71 0-5.14-0.75-7.26-2.29-2.12-1.531-3.78-3.738-4.96-6.609-1.17-2.883-1.75-6.211-1.75-10zm29.07-21.699v1.437c-1.98-2.257-3.93-4.109-5.86-5.539-1.94-1.429-4.03-2.519-6.28-3.261-2.25-0.727-4.73-1.098-7.41-1.098-3.54 0-6.8 0.738-9.82 2.25-3.02 1.488-5.63 3.641-7.82 6.41-2.21 2.777-3.89 6.051-5.02 9.809-1.13 3.75-1.71 7.82-1.71 12.179 0 9.243 2.26 16.461 6.77 21.61 4.52 5.16 10.46 7.75 17.82 7.75 4.27 0 7.87-0.727 10.79-2.188 2.92-1.472 5.77-3.711 8.54-6.761v21.851c0 3.031 0.62 5.309 1.82 6.859 1.21 1.571 2.94 2.329 5.18 2.329s3.96-0.707 5.17-2.129c1.21-1.442 1.8-3.52 1.8-6.309v-65.199c0-2.84-0.63-4.953-1.94-6.352-1.3-1.41-2.97-2.109-5.03-2.109-2.03 0-3.69 0.719-5.02 2.199-1.31 1.461-1.98 3.539-1.98 6.262"/><path d="m2322 215.2c0-5.898 1.35-10.41 4.04-13.578 2.69-3.152 6.21-4.73 10.59-4.73 3.71 0 6.93 1.609 9.61 4.839 2.68 3.239 4.02 7.872 4.02 13.891 0 3.899-0.55 7.27-1.67 10.07-1.11 2.829-2.7 5.008-4.77 6.539-2.05 1.54-4.45 2.29-7.19 2.29-2.82 0-5.35-0.75-7.54-2.29-2.2-1.531-3.93-3.75-5.2-6.671-1.26-2.887-1.89-6.36-1.89-10.36zm-0.71 43.922v-22.601c2.78 2.89 5.62 5.109 8.5 6.64 2.89 1.539 6.48 2.309 10.73 2.309 4.92 0 9.22-1.16 12.93-3.489 3.69-2.339 6.57-5.71 8.61-10.128 2.03-4.422 3.06-9.68 3.06-15.743 0-4.488-0.57-8.57-1.71-12.32-1.14-3.73-2.78-6.969-4.96-9.719-2.17-2.75-4.79-4.871-7.87-6.359-3.09-1.512-6.5-2.25-10.23-2.25-2.25 0-4.4 0.25-6.4 0.809-2.01 0.55-3.72 1.25-5.13 2.14-1.39 0.879-2.6 1.801-3.6 2.731-0.99 0.941-2.3 2.359-3.93 4.218v-1.437c0-2.801-0.66-4.902-2-6.32-1.34-1.442-3.02-2.141-5.09-2.141-2.1 0-3.76 0.699-5.01 2.141-1.25 1.418-1.87 3.519-1.87 6.32v64.558c0 2.981 0.6 5.25 1.82 6.79 1.2 1.531 2.89 2.289 5.06 2.289 2.28 0 4.02-0.707 5.25-2.18 1.22-1.457 1.84-3.547 1.84-6.258"/><path d="m2384.3 183.62 1.36 3.301-18.21 45.828c-1.12 2.621-1.68 4.539-1.68 5.742 0 1.27 0.32 2.43 0.97 3.508 0.66 1.09 1.55 1.961 2.69 2.602 1.14 0.648 2.31 0.98 3.54 0.98 2.14 0 3.73-0.684 4.83-2.031 1.08-1.36 2.04-3.289 2.86-5.832l12.52-36.399 11.86 33.86c0.93 2.73 1.79 4.89 2.54 6.441 0.77 1.559 1.57 2.609 2.41 3.149 0.85 0.539 2.05 0.812 3.61 0.812 1.12 0 2.2-0.293 3.22-0.891 1.03-0.609 1.83-1.41 2.38-2.421 0.56-1.008 0.85-2.071 0.85-3.188-0.15-0.691-0.38-1.66-0.71-2.934-0.32-1.257-0.72-2.546-1.18-3.847l-19.3-50.481c-1.66-4.441-3.28-7.91-4.87-10.441-1.58-2.527-3.7-4.488-6.3-5.828-2.63-1.36-6.16-2.031-10.6-2.031-4.33 0-7.59 0.46-9.74 1.41-2.17 0.941-3.26 2.66-3.26 5.152 0 1.68 0.52 3 1.55 3.918 1.03 0.922 2.55 1.379 4.57 1.379l2.33-0.328c0.95-0.219 1.75-0.321 2.44-0.321 1.7 0 3.04 0.25 4.01 0.77 0.97 0.5 1.84 1.371 2.62 2.621s1.68 3.078 2.69 5.5"/><path d="m2598.5 244.31h3.52v4.441c0 4.629 0.57 8.289 1.76 11.039 1.15 2.731 3.15 4.703 5.96 5.961 2.8 1.23 6.63 1.859 11.49 1.859 8.66 0 12.97-2.097 12.97-6.371 0-1.359-0.45-2.527-1.37-3.508-0.89-0.941-1.95-1.441-3.18-1.441-0.58 0-1.59 0.102-3.01 0.34-1.35 0.18-2.57 0.312-3.55 0.312-2.67 0-4.38-0.8-5.16-2.359-0.72-1.57-1.11-3.832-1.11-6.773v-3.5h3.6c5.65 0 8.45-1.707 8.45-5.11 0-2.398-0.72-3.949-2.24-4.59-1.5-0.648-3.55-0.98-6.21-0.98h-3.6v-39.188c0-2.91-0.69-5.132-2.11-6.66-1.39-1.551-3.16-2.312-5.38-2.312-2.09 0-3.82 0.761-5.23 2.312-1.39 1.528-2.08 3.75-2.08 6.66v39.188h-4.07c-2.22 0-3.89 0.48-5.09 1.492-1.19 0.981-1.8 2.277-1.8 3.859 0 3.571 2.48 5.329 7.44 5.329"/><path d="m2646.9 206.81v-12.368c0-2.98-0.76-5.222-2.13-6.722-1.4-1.52-3.19-2.25-5.35-2.25s-3.91 0.742-5.28 2.269c-1.35 1.512-2.06 3.75-2.06 6.703v41.18c0 6.66 2.39 10 7.2 10 2.47 0 4.23-0.769 5.33-2.34 1.07-1.551 1.67-3.851 1.8-6.89 1.76 3.039 3.56 5.339 5.41 6.89 1.9 1.571 4.34 2.34 7.47 2.34 3.11 0 6.11-0.769 9.04-2.34 2.94-1.551 4.39-3.633 4.39-6.191 0-1.789-0.63-3.309-1.86-4.461-1.25-1.168-2.59-1.758-4.03-1.758-0.56 0-1.88 0.348-3.95 1.02-2.07 0.64-3.91 0.98-5.48 0.98-2.17 0-3.95-0.582-5.31-1.699-1.38-1.16-2.46-2.832-3.22-5.051-0.73-2.25-1.24-4.941-1.56-8-0.28-3.109-0.41-6.883-0.41-11.312"/><path d="m2685.9 220.3h26.79c-0.34 5.051-1.69 8.847-4.07 11.328-2.37 2.519-5.45 3.769-9.34 3.769-3.69 0-6.72-1.257-9.08-3.808s-3.81-6.309-4.3-11.289m28.92-8.41h-28.92c0.04-3.34 0.69-6.321 2.02-8.879 1.34-2.543 3.07-4.481 5.26-5.782 2.2-1.308 4.59-1.96 7.25-1.96 1.76 0 3.37 0.199 4.83 0.652 1.46 0.379 2.88 1.047 4.25 1.918 1.38 0.879 2.63 1.832 3.79 2.859 1.16 1.012 2.66 2.383 4.5 4.102 0.77 0.648 1.86 1 3.25 1 1.53 0 2.74-0.442 3.7-1.27 0.95-0.851 1.39-2 1.39-3.511 0-1.348-0.52-2.899-1.52-4.68-1.07-1.809-2.64-3.52-4.78-5.168-2.13-1.621-4.78-3.012-7.98-4.07-3.17-1.082-6.86-1.633-11.01-1.633-9.52 0-16.89 2.691-22.16 8.101-5.27 5.442-7.93 12.789-7.93 22.071 0 4.371 0.67 8.429 1.98 12.168 1.28 3.761 3.19 6.941 5.71 9.632 2.48 2.68 5.52 4.719 9.19 6.141 3.63 1.406 7.67 2.129 12.13 2.129 5.76 0 10.73-1.211 14.87-3.672 4.13-2.418 7.25-5.578 9.28-9.43 2.07-3.89 3.09-7.808 3.09-11.839 0-3.7-1.07-6.098-3.19-7.219-2.13-1.09-5.13-1.66-9-1.66"/><path d="m2747.4 220.3h26.81c-0.36 5.051-1.74 8.847-4.07 11.328-2.41 2.519-5.49 3.769-9.37 3.769-3.69 0-6.71-1.257-9.09-3.808-2.35-2.551-3.79-6.309-4.28-11.289m28.94-8.41h-28.94c0.03-3.34 0.71-6.321 2.02-8.879 1.33-2.543 3.08-4.481 5.26-5.782 2.18-1.308 4.59-1.96 7.25-1.96 1.74 0 3.37 0.199 4.81 0.652 1.49 0.379 2.88 1.047 4.27 1.918 1.39 0.879 2.64 1.832 3.8 2.859 1.13 1.012 2.65 2.383 4.49 4.102 0.78 0.648 1.86 1 3.24 1 1.53 0 2.76-0.442 3.71-1.27 0.94-0.851 1.38-2 1.38-3.511 0-1.348-0.5-2.899-1.57-4.68-1.01-1.809-2.59-3.52-4.73-5.168-2.11-1.621-4.79-3.012-7.96-4.07-3.18-1.082-6.89-1.633-11.03-1.633-9.5 0-16.87 2.691-22.17 8.101-5.27 5.442-7.92 12.789-7.92 22.071 0 4.371 0.67 8.429 1.99 12.168 1.3 3.761 3.18 6.941 5.68 9.632 2.48 2.68 5.55 4.719 9.19 6.141 3.65 1.406 7.72 2.129 12.15 2.129 5.76 0 10.72-1.211 14.91-3.672 4.09-2.418 7.21-5.578 9.24-9.43 2.05-3.89 3.1-7.808 3.1-11.839 0-3.7-1.09-6.098-3.19-7.219-2.14-1.09-5.14-1.66-8.98-1.66"/><path d="m2837.8 215.81c0 3.902-0.59 7.261-1.78 10.05-1.19 2.801-2.84 4.942-4.94 6.43-2.09 1.492-4.46 2.262-7.02 2.262-4.08 0-7.53-1.621-10.31-4.801-2.82-3.238-4.24-7.98-4.24-14.23 0-5.848 1.4-10.45 4.21-13.731 2.77-3.258 6.19-4.891 10.34-4.891 2.43 0 4.73 0.723 6.83 2.122 2.11 1.449 3.78 3.582 5.03 6.429 1.25 2.86 1.88 6.321 1.88 10.36m-28.97 21.48v-1.769c2.76 3.421 5.65 5.929 8.68 7.562 2.96 1.609 6.38 2.41 10.18 2.41 4.51 0 8.75-1.172 12.57-3.512 3.82-2.359 6.84-5.8 9.07-10.3 2.21-4.539 3.34-9.86 3.34-16.039 0-4.539-0.65-8.743-1.92-12.551-1.28-3.82-3.06-7-5.29-9.578-2.25-2.563-4.89-4.582-7.93-5.981-3.09-1.371-6.33-2.062-9.84-2.062-4.23 0-7.8 0.851-10.65 2.543-2.87 1.679-5.6 4.199-8.21 7.457v-22.199c0-6.481-2.38-9.758-7.1-9.758-2.8 0-4.61 0.84-5.54 2.508-0.88 1.699-1.34 4.132-1.34 7.359v63.832c0 2.84 0.61 4.91 1.82 6.32 1.23 1.367 2.92 2.09 5.06 2.09 2.1 0 3.79-0.723 5.11-2.141 1.33-1.449 1.99-3.48 1.99-6.191"/><path d="m2874.8 237.21v-42.781c0-2.942-0.69-5.18-2.1-6.692-1.42-1.527-3.2-2.269-5.37-2.269-2.16 0-3.9 0.761-5.29 2.312-1.33 1.59-2.02 3.809-2.02 6.649v42.359c0 2.91 0.69 5.102 2.02 6.59 1.39 1.5 3.13 2.242 5.29 2.242 2.17 0 3.95-0.742 5.37-2.242 1.41-1.488 2.1-3.547 2.1-6.168m-7.31 15.277c-2.07 0-3.82 0.641-5.27 1.903-1.48 1.269-2.2 3.05-2.2 5.351 0 2.098 0.75 3.817 2.26 5.199 1.49 1.34 3.23 2.028 5.21 2.028 1.94 0 3.63-0.61 5.09-1.828 1.48-1.25 2.22-3.039 2.22-5.399 0-2.281-0.72-4.051-2.14-5.332-1.45-1.281-3.17-1.922-5.17-1.922"/><path d="m2922.5 192.22-13.03 21.472-8.03-7.582v-11.769c0-2.852-0.76-5.031-2.26-6.559-1.47-1.551-3.23-2.312-5.17-2.312-2.27 0-4.07 0.742-5.37 2.269-1.29 1.512-1.95 3.75-1.95 6.703v63.11c0 3.25 0.65 5.738 1.87 7.469 1.28 1.742 3.12 2.589 5.45 2.589 2.27 0 4.06-0.769 5.41-2.347 1.34-1.543 2.02-3.84 2.02-6.864v-35.878l16.64 17.468c2.06 2.133 3.59 3.641 4.7 4.422 1.08 0.801 2.4 1.211 3.92 1.211 1.87 0 3.4-0.601 4.67-1.769 1.2-1.18 1.82-2.661 1.82-4.422 0-2.149-2.02-5.059-6.01-8.66l-7.85-7.219 15.16-23.832c1.1-1.797 1.93-3.11 2.41-4.047l0.75-2.621c0-2.371-0.66-4.18-1.95-5.571-1.29-1.351-2.99-2.011-5.04-2.011-1.81 0-3.22 0.472-4.2 1.453-0.96 0.988-2.31 2.769-3.96 5.297"/><path d="m2954.6 185.47c-2.25 0-4.16 0.711-5.79 2.183-1.62 1.399-2.45 3.43-2.45 6.047 0 2.223 0.8 4.11 2.35 5.692 1.56 1.589 3.45 2.379 5.74 2.379 2.27 0 4.2-0.79 5.83-2.36 1.6-1.57 2.41-3.469 2.41-5.711 0-2.57-0.81-4.597-2.41-6.039-1.63-1.48-3.52-2.191-5.68-2.191"/><path d="m3028.2 203.78c0-1.84-0.56-3.82-1.66-5.91-1.09-2.101-2.78-4.082-5.06-5.98-2.24-1.891-5.06-3.442-8.51-4.59-3.44-1.141-7.32-1.742-11.59-1.742-9.15 0-16.3 2.671-21.44 7.992-5.09 5.34-7.66 12.488-7.66 21.449 0 6.082 1.17 11.441 3.52 16.102 2.33 4.64 5.73 8.257 10.17 10.789 4.44 2.55 9.78 3.82 15.93 3.82 3.85 0 7.34-0.559 10.57-1.68 3.19-1.109 5.89-2.582 8.13-4.312 2.2-1.809 3.91-3.68 5.06-5.668 1.19-2 1.75-3.891 1.75-5.641 0-1.738-0.63-3.238-1.95-4.48-1.33-1.219-2.94-1.848-4.78-1.848-1.25 0-2.28 0.316-3.09 0.949-0.82 0.629-1.72 1.649-2.73 3.09-1.81 2.731-3.68 4.789-5.67 6.16-1.95 1.367-4.46 2.059-7.5 2.059-4.35 0-7.88-1.711-10.57-5.129-2.65-3.391-4.01-8.102-4.01-13.992 0-2.77 0.36-5.348 1.04-7.668 0.68-2.34 1.66-4.321 2.97-5.961 1.32-1.649 2.88-2.879 4.72-3.75 1.85-0.86 3.88-1.27 6.06-1.27 2.97 0 5.51 0.68 7.62 2.039 2.15 1.391 4.02 3.461 5.63 6.301 0.9 1.649 1.87 2.961 2.9 3.899 1.03 0.921 2.33 1.41 3.85 1.41 1.81 0 3.32-0.688 4.48-2.047 1.2-1.371 1.82-2.871 1.82-4.391"/><path d="m3077.2 215.53c0 6.028-1.34 10.719-3.99 14.071-2.63 3.398-6.21 5.07-10.69 5.07-2.9 0-5.43-0.75-7.65-2.25-2.19-1.492-3.88-3.703-5.08-6.633-1.19-2.937-1.79-6.359-1.79-10.258 0-3.883 0.58-7.23 1.77-10.121 1.19-2.922 2.86-5.129 5.05-6.648 2.19-1.52 4.75-2.301 7.7-2.301 4.48 0 8.06 1.68 10.69 5.078 2.65 3.371 3.99 8.063 3.99 13.992m14.83 0c0-4.402-0.68-8.472-2.02-12.199-1.41-3.723-3.38-6.91-5.99-9.582-2.58-2.668-5.7-4.719-9.3-6.148-3.65-1.422-7.69-2.141-12.2-2.141-4.47 0-8.5 0.719-12.09 2.191-3.55 1.399-6.67 3.489-9.26 6.168-2.64 2.711-4.62 5.899-6 9.551-1.31 3.66-2 7.731-2 12.16 0 4.481 0.69 8.59 2.04 12.301 1.38 3.738 3.36 6.918 5.92 9.527 2.56 2.653 5.67 4.68 9.3 6.121 3.67 1.418 7.69 2.141 12.09 2.141 4.48 0 8.55-0.723 12.2-2.191 3.64-1.43 6.76-3.5 9.37-6.149 2.62-2.711 4.58-5.871 5.93-9.543 1.34-3.718 2.01-7.758 2.01-12.207"/><path d="m3148.4 214.44v-19.652c0-3.117-0.7-5.418-2.09-7.008-1.44-1.551-3.27-2.32-5.59-2.32-2.24 0-4.06 0.769-5.42 2.32-1.4 1.59-2.13 3.891-2.13 7.008v23.551c0 3.73-0.11 6.621-0.37 8.691-0.24 2.02-0.94 3.739-2.05 5.039-1.12 1.352-2.91 2-5.31 2-4.85 0-8.02-1.648-9.56-5.019-1.52-3.289-2.32-8.051-2.32-14.281v-19.981c0-3.07-0.7-5.418-2.06-6.988-1.42-1.551-3.24-2.34-5.49-2.34-2.27 0-4.1 0.789-5.52 2.34-1.44 1.57-2.15 3.918-2.15 6.988v42.301c0 2.789 0.63 4.91 1.92 6.34 1.3 1.468 2.99 2.191 5.07 2.191 2.03 0 3.7-0.711 5.08-2.039 1.36-1.352 2.02-3.223 2.02-5.613v-1.41c2.58 3.062 5.33 5.32 8.24 6.742 2.94 1.48 6.18 2.191 9.76 2.191 3.72 0 6.92-0.73 9.58-2.211 2.68-1.492 4.86-3.742 6.62-6.722 2.5 3.031 5.17 5.281 8.04 6.742 2.85 1.469 5.99 2.191 9.48 2.191 4.01 0 7.52-0.801 10.45-2.371 2.92-1.601 5.1-3.871 6.54-6.82 1.26-2.699 1.88-6.903 1.88-12.653v-28.859c0-3.117-0.69-5.418-2.1-7.008-1.39-1.551-3.26-2.32-5.58-2.32-2.23 0-4.08 0.789-5.49 2.34-1.43 1.57-2.15 3.918-2.15 6.988v24.871c0 3.18-0.14 5.711-0.4 7.629-0.27 1.922-1.01 3.531-2.17 4.82-1.21 1.313-3.03 1.961-5.44 1.961-1.95 0-3.8-0.601-5.57-1.75-1.74-1.14-3.11-2.718-4.1-4.621-1.06-2.519-1.62-6.929-1.62-13.258"/><path d="m2460.1 219.1-0.01 0.097 0.01-0.097"/><path d="m2460.8 214.37h0.01c-0.28 1.348-0.5 2.688-0.66 4.02 0.16-1.34 0.38-2.692 0.65-4.02"/><path d="m2465.7 200.65-0.1 0.204 0.1-0.204"/><path d="m2465.2 201.58-0.36 0.738 0.36-0.738"/><path d="m2462.2 209.08c0.73-2.273 1.6-4.48 2.61-6.602-1.02 2.168-1.88 4.391-2.58 6.602h-0.03"/><path d="m2517.3 275.77c2.87 0 4.97-0.231 7.39-0.641l0.69 4.351s-6.69 2.071-15.46 1.34l-0.7 2.371c2.73 0.571 4.78 2.989 4.78 5.891 0 3.316-2.7 6.02-6.01 6.02-3.34 0-6.04-2.704-6.04-6.02 0-2.902 2.05-5.32 4.77-5.891l0.76-2.632c-9.31-1.289-16.73-4.938-16.73-4.938l1.31-4.019c5.63 1.89 10.52 3.027 14.96 3.507 4.35 0.473 7.62 0.661 10.28 0.661"/><path d="m2465.6 253.77 0.01 0.031 0.66 0.82-1.79 1.301-2.78 2.019c-0.15-0.222-4.54-4.242-7.98-11.671l-0.52 0.679c-1.03 1.121-2.49 1.699-4.32 1.672h-0.09c-1.12 0-1.92 0.379-2.43 0.84l0.81 2.348c0 2.121-1.72 3.832-3.82 3.832-2.11 0-3.79-1.711-3.79-3.832 0-2.098 1.68-3.797 3.79-3.797l0.97 0.109c0.93-1.039 2.41-1.961 4.6-1.91 1.11 8e-3 1.95-0.27 2.48-0.879l0.92-2.441-0.02-0.032c-2.48-6.789-1.77-15.218-1.77-15.218l6.02-0.243c0.12 3.071 0.58 8.454 2.14 12.723 2.99 8.27 6.76 13.43 6.91 13.649"/><path d="m2569.8 270.73c-2.09 0-3.8-1.71-3.8-3.808l0.13-0.953c-1.05-0.949-1.97-2.43-1.93-4.617 0.02-1.141-0.26-1.954-0.89-2.493l-1.68-0.8c-4.47 6.281-10.01 10.132-10.01 10.132l-4.32-4.652c3.26-2.969 6.6-6.68 9.86-11.34 2.24-3.219 4.55-7.347 6.46-11.488l5.84 2.769s-2.65 6.579-6.4 12.512l1.87 1.078c1.15 1.039 1.71 2.489 1.67 4.332-0.01 1.188 0.37 1.989 0.85 2.52l2.35-0.832c2.11 0 3.81 1.711 3.81 3.832 0 2.098-1.7 3.808-3.81 3.808"/><path d="m2554.6 218.25c-8.04-3.918-21.26-9.078-38.66-11.508-6.85-0.941-13.47-1.301-19.57-1.301-7.93 0-14.93 0.59-20.31 1.258-6.14 0.789-10.94 1.731-13.86 2.383 0.7-2.211 1.56-4.434 2.58-6.602l0.08-0.16 0.36-0.738 0.37-0.73 0.1-0.204c1.73-3.25 3.8-6.25 6.17-8.816 8.21-9 16.57-10.402 16.65-10.41l0.14-0.031 0.12-0.051c0.07-0.02 7.5-2.41 18.76-2.41 11.1 0 21.99 2.23 32.35 6.652 7.7 3.93 14.96 9.91 18.56 15.219 2.79 4.121 4.8 8.531 5.99 13.09 0.64 2.429 1.15 6.32 0.84 10.398-2.26-1.508-5.83-3.687-10.67-6.039"/><path d="m2491.2 256.05c8.88 0 16.07-7.18 16.07-16.051 0-8.879-7.19-16.059-16.07-16.059-8.86 0-16.05 7.18-16.05 16.059 0 8.871 7.19 16.051 16.05 16.051zm47-0.391c5.47 0 9.95-4.441 9.95-9.941 0-5.481-4.48-9.949-9.95-9.949-5.48 0-9.94 4.468-9.94 9.949 0 5.5 4.46 9.941 9.94 9.941zm-69.96-3.801c-0.24-0.339-3.73-5.269-6.48-12.839-2.06-5.68-1.96-13.93-1.96-14.04v-0.019c0-1.922 0.1-3.859 0.32-5.762l0.01-0.097 0.09-0.711c0.16-1.332 0.38-2.672 0.66-4.02 4-1 27.83-6.562 54.45-2.851 16.7 2.312 29.37 7.25 37.07 10.968 6.4 3.121 10.5 5.922 12.08 7.063-1.58 5.89-5.94 15.07-9.93 20.808-11.43 16.332-23.77 20.532-30.1 21.563-2.42 0.398-4.34 0.637-7.09 0.637-2.54 0-5.72-0.207-9.93-0.661-4.25-0.437-8.97-1.546-14.44-3.378-7.69-2.579-14.64-6.629-20.12-11.688l-0.19-0.16c-0.81-0.75-2.5-2.313-4.44-4.813"/></g></g></g></svg>
